{"glyphs":{"0":{"ha":793,"x_min":81,"x_max":713,"o":"m 396 958 q 496 940 451 958 q 576 886 540 921 q 647 792 618 846 q 692 672 675 738 q 708 581 703 632 q 713 475 713 529 q 708 369 713 421 q 692 276 703 317 q 653 169 678 221 q 591 78 628 117 q 506 15 554 39 q 396 -8 457 -8 q 287 15 335 -8 q 202 78 239 39 q 140 170 165 118 q 101 278 115 222 q 85 369 90 318 q 81 475 81 421 q 85 581 81 529 q 101 674 90 633 q 140 782 115 731 q 202 872 165 833 q 287 935 239 911 q 396 958 335 958 m 549 839 q 476 890 515 872 q 396 907 436 907 q 316 890 356 907 q 243 839 276 872 q 188 760 211 807 q 151 661 165 714 q 137 574 142 624 q 132 474 132 525 q 137 376 132 424 q 151 290 142 328 q 185 199 164 243 q 235 119 206 154 q 306 64 265 85 q 396 43 346 43 q 488 64 447 43 q 558 119 528 85 q 608 198 588 154 q 642 289 629 242 q 654 354 650 318 q 660 427 658 390 q 660 500 661 464 q 657 567 660 536 q 624 715 650 643 q 549 839 599 788 z "},"1":{"ha":456,"x_min":65,"x_max":354,"o":"m 354 0 l 304 0 l 304 892 l 65 819 l 65 872 l 286 939 l 354 939 l 354 0 z "},"2":{"ha":681,"x_min":86,"x_max":594,"o":"m 86 0 l 86 69 l 507 629 q 540 713 536 668 q 519 799 543 758 q 442 872 492 847 q 338 899 393 897 q 229 875 282 900 q 140 796 176 850 l 94 819 q 192 914 131 879 q 326 950 254 949 l 332 950 q 436 931 389 950 q 519 881 483 913 q 574 808 554 849 q 594 722 594 767 q 585 663 594 693 q 554 606 575 633 l 139 51 l 572 51 l 572 0 l 86 0 z "},"3":{"ha":714,"x_min":89,"x_max":622,"o":"m 89 118 q 103 126 94 121 q 135 142 111 131 q 197 81 160 104 q 276 47 233 57 q 363 42 318 38 q 447 67 407 46 q 528 133 497 92 q 567 223 558 175 q 563 320 576 271 q 511 410 549 369 q 447 457 481 442 q 386 478 414 472 q 339 483 358 483 q 317 483 319 483 l 263 519 l 519 889 l 110 889 l 110 939 l 571 939 l 571 871 l 338 538 l 379 532 q 476 499 432 524 q 553 439 521 475 q 606 355 589 400 q 622 263 622 310 q 586 127 622 192 q 479 25 550 63 q 335 -12 411 -12 q 196 21 261 -12 q 89 118 131 54 z "},"4":{"ha":736,"x_min":74,"x_max":649,"o":"m 340 939 l 394 939 l 396 939 l 121 243 l 468 243 l 468 364 q 482 422 467 390 q 513 472 497 453 l 519 472 l 519 243 l 649 243 l 649 192 l 519 192 l 519 0 l 468 0 l 468 192 l 74 192 l 74 261 l 340 939 z "},"5":{"ha":708,"x_min":86,"x_max":624,"o":"m 586 938 l 586 886 l 585 886 l 151 886 l 151 536 l 318 536 q 434 517 379 536 q 531 461 489 497 q 599 374 574 425 q 624 260 624 324 q 601 151 624 201 q 539 65 578 101 q 441 4 494 25 q 332 -17 388 -17 q 195 15 261 -17 q 86 110 129 47 l 132 135 q 197 74 158 97 q 278 41 235 50 q 367 38 322 32 q 453 67 413 44 q 531 134 501 93 q 568 223 560 175 q 563 319 576 271 q 511 408 550 368 q 422 469 471 453 q 315 485 374 485 l 100 483 l 100 939 l 586 938 z "},"6":{"ha":778,"x_min":101,"x_max":672,"o":"m 126 363 q 238 651 182 507 q 350 939 293 794 l 350 939 l 404 939 l 225 478 q 269 499 247 490 q 318 515 292 508 q 447 517 383 531 q 560 467 510 503 q 641 377 610 432 q 672 256 672 322 q 649 149 672 199 q 587 64 626 100 q 496 8 547 28 q 388 -12 444 -12 q 291 3 338 -12 q 207 49 244 19 q 143 118 169 78 q 107 207 117 158 q 101 256 101 228 q 126 363 101 311 m 551 408 q 474 456 517 440 q 387 472 432 472 q 299 456 342 472 q 222 408 257 440 l 222 410 q 171 338 188 378 q 154 256 154 297 q 171 174 154 214 q 222 101 188 133 q 299 55 257 71 q 387 39 342 39 q 474 55 432 39 q 551 101 517 71 q 602 174 585 133 q 619 256 619 214 q 602 337 619 297 q 551 408 585 376 z "},"7":{"ha":654,"x_min":75,"x_max":568,"o":"m 229 0 l 175 0 l 518 886 l 75 886 l 75 939 l 568 939 l 568 867 l 229 0 z "},"8":{"ha":736,"x_min":82,"x_max":656,"o":"m 221 593 q 290 547 250 563 q 369 531 329 531 q 449 546 410 531 q 517 592 488 561 l 517 592 q 538 620 528 606 q 554 650 547 635 q 566 741 574 696 q 531 822 558 786 q 462 878 504 857 q 369 900 419 900 q 276 878 319 900 q 204 817 232 856 q 172 702 167 764 q 221 593 176 640 m 250 507 q 215 530 232 517 q 183 558 197 543 q 138 626 154 589 q 119 701 122 663 q 128 778 117 740 q 164 850 139 817 q 256 925 201 900 q 369 951 311 950 q 463 934 417 951 q 544 882 508 917 q 608 781 590 838 q 614 667 625 725 q 567 570 600 606 q 485 507 533 535 q 514 493 500 500 q 539 478 528 486 q 626 380 596 438 q 656 258 656 322 q 647 190 656 224 q 617 124 638 156 q 510 22 576 57 q 368 -12 443 -12 q 262 7 314 -12 q 167 67 210 26 q 103 156 124 107 q 82 258 82 206 q 100 353 82 307 q 154 440 118 400 q 199 478 174 461 q 250 507 224 496 m 535 415 q 457 463 500 447 q 369 479 414 479 q 281 463 324 479 q 203 415 238 447 l 203 415 q 151 343 168 383 q 133 260 133 303 q 151 177 133 218 q 203 104 168 136 q 281 56 238 72 q 369 40 324 40 q 457 56 414 40 q 535 104 500 72 q 587 177 569 136 q 604 260 604 218 q 587 342 604 301 q 535 415 569 383 z "},"9":{"ha":778,"x_min":101,"x_max":671,"o":"m 642 564 q 533 282 588 422 q 422 0 478 142 l 368 0 q 458 231 413 117 q 547 461 503 344 q 495 437 522 447 q 433 419 468 426 q 311 426 371 410 q 205 478 251 442 q 130 567 158 514 q 101 683 101 619 q 121 781 101 736 q 174 861 140 826 q 251 919 207 896 q 347 949 296 942 q 366 951 357 950 q 385 951 375 951 q 480 936 433 951 q 564 892 526 921 q 628 822 601 863 q 665 732 656 782 q 669 708 668 719 q 671 685 671 696 q 663 625 671 653 q 642 564 654 597 m 221 531 q 298 483 256 499 q 385 467 340 467 q 473 483 431 467 q 550 531 515 499 q 602 602 585 563 q 619 683 619 642 q 602 765 619 725 q 550 836 585 806 q 473 883 515 868 q 385 899 431 899 q 298 883 340 899 q 221 836 256 868 q 169 765 186 804 q 153 683 153 725 q 169 602 153 642 q 221 531 186 563 z "},"Ņ":{"ha":736,"x_min":0,"x_max":556,"o":"m 69 139 l 486 139 l 486 858 l 69 858 l 69 139 m 0 928 l 556 928 l 556 69 l 0 69 l 0 928 z "},"\u0000":{"ha":0,"x_min":0,"x_max":0,"o":""},"\r":{"ha":0,"x_min":0,"x_max":0,"o":""}," ":{"ha":299,"x_min":0,"x_max":0,"o":""},"!":{"ha":344,"x_min":104,"x_max":207,"o":"m 156 -1 q 118 15 135 -1 q 104 53 104 29 q 118 90 104 76 q 146 104 131 103 q 174 100 161 106 q 197 82 188 94 q 207 53 207 69 q 191 13 207 26 q 156 -1 175 -1 m 144 263 q 135 437 142 349 q 131 611 129 525 l 131 940 l 194 940 l 194 611 q 188 437 194 525 q 175 263 181 349 l 144 263 z "},"\"":{"ha":354,"x_min":78,"x_max":272,"o":"m 139 1183 l 111 881 l 100 881 l 78 1183 l 139 1183 m 213 1182 l 272 1182 l 244 881 l 236 881 l 213 1182 z "},"#":{"ha":1158,"x_min":57,"x_max":1099,"o":"m 718 297 l 797 643 l 438 643 l 357 297 l 718 297 m 239 0 l 296 246 l 57 246 l 69 297 l 308 297 l 388 643 l 150 643 l 161 694 l 400 694 l 457 938 l 507 938 l 450 694 l 811 694 l 867 938 l 918 938 l 861 694 l 1099 694 l 1086 643 l 849 643 l 768 297 l 1007 297 l 994 246 l 756 246 l 699 0 l 649 0 l 706 246 l 346 246 l 289 0 l 239 0 z "},"$":{"ha":697,"x_min":68,"x_max":607,"o":"m 326 869 l 326 940 l 351 940 l 365 940 l 365 868 q 413 861 388 865 q 478 839 439 857 q 576 767 536 811 l 536 735 q 426 803 489 785 q 304 815 364 822 q 198 781 244 808 q 138 708 151 753 q 147 615 119 653 q 219 554 174 578 q 340 508 278 525 q 460 467 401 490 q 534 422 500 449 q 588 358 568 394 q 607 283 607 324 q 605 252 607 268 q 596 219 603 236 q 556 153 582 181 q 494 106 529 125 q 450 86 472 93 q 409 76 428 79 q 378 71 390 72 q 365 69 367 69 l 365 0 l 325 0 l 325 68 q 279 72 308 68 q 215 88 250 76 q 143 121 181 99 q 74 178 106 143 l 114 208 q 229 138 163 158 q 360 122 296 117 q 477 156 425 126 q 547 236 529 186 q 555 298 560 269 q 534 349 550 326 q 493 390 518 372 q 439 419 468 407 q 345 453 396 439 q 246 487 294 468 q 157 533 197 506 q 96 601 117 560 q 89 726 68 660 q 128 792 101 765 q 192 838 156 819 q 274 863 236 858 q 326 869 311 868 z "},"%":{"ha":979,"x_min":74,"x_max":901,"o":"m 617 274 q 672 310 642 297 q 735 322 703 322 q 797 310 767 322 q 851 274 828 297 q 888 220 875 250 q 901 156 901 190 q 887 88 901 118 q 849 35 872 57 q 795 2 825 14 q 733 -10 765 -10 q 672 2 701 -10 q 617 39 643 14 q 581 94 593 64 q 569 156 569 125 q 581 218 569 188 q 617 274 593 249 m 849 156 q 828 222 849 194 q 778 261 808 249 q 714 269 747 274 q 653 238 681 264 q 619 158 621 204 q 653 76 618 111 q 714 44 681 50 q 778 51 747 39 q 828 91 808 64 q 849 156 849 118 m 239 947 q 302 935 271 947 q 357 899 333 924 q 406 782 406 853 q 376 687 406 726 q 303 629 346 647 q 210 619 260 611 q 122 665 161 626 q 85 719 97 689 q 74 782 74 750 q 85 844 74 814 q 122 899 97 875 q 176 935 146 924 q 239 947 207 947 m 353 782 q 333 847 353 819 q 283 888 313 875 q 219 895 253 900 q 158 863 185 890 q 133 826 142 846 q 124 783 124 806 q 132 740 124 761 q 158 701 140 719 q 219 669 185 675 q 283 676 253 664 q 333 717 313 689 q 353 782 353 744 m 146 0 l 783 939 l 814 939 l 176 0 l 146 0 z "},"&":{"ha":865,"x_min":69,"x_max":788,"o":"m 481 100 q 508 122 492 110 q 538 147 524 135 q 563 167 553 158 q 574 175 574 175 l 338 489 l 211 388 q 136 285 154 342 q 132 178 118 229 q 189 89 146 126 q 297 43 232 51 q 393 52 346 36 q 481 100 440 68 m 706 0 q 634 93 660 60 q 603 133 608 126 q 549 90 576 113 q 494 46 522 67 q 408 1 451 15 q 324 -12 364 -12 q 263 -5 292 -12 q 207 17 233 3 q 125 81 160 40 q 76 174 90 122 q 69 228 69 201 q 94 329 69 278 q 178 426 119 381 l 306 531 q 277 571 292 550 q 251 610 263 592 q 218 723 219 664 q 249 835 217 782 q 345 922 285 893 q 472 951 406 951 q 607 919 542 951 q 715 819 672 888 l 669 796 q 588 872 638 844 q 482 900 539 899 q 375 878 422 901 q 301 818 328 856 q 271 733 274 781 q 297 636 268 685 q 331 585 308 617 q 383 513 354 553 q 444 430 411 474 q 508 344 476 386 q 566 267 539 303 q 613 207 593 231 l 756 322 l 788 281 l 644 165 l 771 0 l 706 0 z "},"'":{"ha":213,"x_min":75,"x_max":135,"o":"m 135 1183 l 106 881 l 97 881 l 75 1183 l 135 1183 z "},"(":{"ha":368,"x_min":106,"x_max":278,"o":"m 238 -85 q 106 494 106 207 q 138 783 106 639 q 238 1072 171 926 l 278 1072 q 157 494 157 785 q 276 -85 157 201 l 238 -85 z "},")":{"ha":381,"x_min":97,"x_max":272,"o":"m 136 -83 l 97 -83 l 97 -83 q 217 496 217 203 q 97 1075 217 783 l 136 1075 q 269 496 272 786 q 136 -83 269 207 z "},"*":{"ha":619,"x_min":69,"x_max":539,"o":"m 314 1019 q 319 913 317 967 q 324 806 321 860 l 535 850 l 539 833 l 336 768 l 446 585 l 431 575 q 367 659 399 617 q 304 744 336 701 l 178 575 l 163 586 l 272 768 l 69 833 l 75 850 q 180 828 128 839 q 285 806 232 817 l 296 1019 l 314 1019 z "},"+":{"ha":713,"x_min":75,"x_max":631,"o":"m 328 503 l 328 754 l 379 754 l 378 503 l 631 503 l 631 450 l 378 451 l 378 199 l 328 199 l 328 451 l 75 451 l 75 503 l 328 503 z "},",":{"ha":229,"x_min":71,"x_max":153,"o":"m 153 82 q 114 -56 133 13 q 75 -194 94 -125 l 71 -194 l 92 82 l 153 82 z "},"-":{"ha":701,"x_min":83,"x_max":611,"o":"m 611 451 l 83 451 l 83 504 l 611 504 l 611 451 z "},".":{"ha":247,"x_min":72,"x_max":178,"o":"m 125 0 q 88 15 103 0 q 72 53 72 31 q 88 90 72 75 q 104 101 94 97 q 125 106 114 106 q 146 101 136 106 q 163 90 156 97 q 178 53 178 75 q 163 15 178 31 q 125 0 147 0 z "},"/":{"ha":442,"x_min":-19,"x_max":460,"o":"m 190 460 q 300 757 246 610 q 407 1049 354 904 l 408 1049 l 460 1049 q 356 765 408 908 q 249 476 303 622 q 140 181 194 328 q 32 -110 85 33 l -19 -110 q 85 172 32 29 q 190 460 138 315 z "},":":{"ha":256,"x_min":75,"x_max":179,"o":"m 179 53 q 164 15 179 31 q 126 0 149 0 q 107 4 117 0 q 90 15 97 8 q 75 53 75 31 q 90 89 75 74 q 107 100 97 96 q 126 104 117 104 q 164 89 149 104 q 179 53 179 74 m 179 625 q 164 588 179 603 q 126 572 149 572 q 107 576 117 572 q 90 588 97 581 q 75 625 75 603 q 79 644 75 635 q 90 661 83 654 q 107 672 97 668 q 126 676 117 676 q 164 661 149 676 q 175 644 171 654 q 179 625 179 635 z "},";":{"ha":238,"x_min":61,"x_max":174,"o":"m 121 572 q 83 588 99 572 q 68 625 68 603 q 83 663 68 647 q 121 678 99 678 q 158 663 143 678 q 174 625 174 647 q 158 588 174 603 q 121 572 143 572 m 67 -194 l 61 -194 l 83 82 l 144 82 l 67 -194 z "},"<":{"ha":701,"x_min":75,"x_max":622,"o":"m 75 501 q 244 556 168 531 q 387 601 321 581 q 510 641 453 622 q 622 678 568 660 l 622 643 l 165 479 l 622 317 l 622 281 q 510 317 568 299 q 388 357 453 336 q 245 403 322 378 q 75 458 168 428 l 75 501 z "},"=":{"ha":697,"x_min":79,"x_max":624,"o":"m 624 569 q 456 570 532 569 q 315 571 381 571 q 192 571 250 571 q 79 571 135 571 l 79 601 l 351 601 l 624 601 l 624 569 m 79 351 l 79 382 l 351 382 l 624 382 l 624 351 l 351 351 l 79 351 z "},">":{"ha":688,"x_min":65,"x_max":613,"o":"m 524 479 q 294 562 408 521 q 65 643 181 603 l 65 678 q 174 643 113 663 q 307 601 236 624 q 456 552 378 578 q 613 501 533 526 l 613 458 l 65 281 l 65 317 l 524 479 z "},"?":{"ha":656,"x_min":78,"x_max":575,"o":"m 296 276 q 324 388 300 335 q 380 487 349 440 q 442 573 411 533 q 492 642 474 613 q 517 706 513 675 q 520 753 524 731 q 506 799 517 776 q 442 867 486 842 q 367 894 410 886 q 218 878 286 911 q 166 843 190 864 q 125 794 142 822 l 78 818 q 192 921 121 885 q 321 950 250 950 q 371 946 346 950 q 413 936 393 943 q 453 919 433 929 q 550 831 518 888 q 568 789 561 811 q 574 742 575 767 q 574 725 574 733 q 571 707 574 717 q 549 644 564 675 q 506 581 532 610 q 453 524 481 553 q 406 474 429 500 q 362 419 382 449 q 327 355 342 390 q 306 276 313 319 l 296 276 m 294 0 q 257 15 272 0 q 240 53 240 32 q 257 92 240 75 q 294 107 272 107 q 332 92 317 107 q 349 53 349 75 q 332 15 349 32 q 294 0 317 0 z "},"@":{"ha":1347,"x_min":113,"x_max":1231,"o":"m 663 128 q 765 154 719 128 q 840 223 811 181 q 874 318 868 265 q 860 422 881 371 l 861 424 q 814 493 843 464 q 738 542 781 526 q 651 555 694 557 q 567 535 608 553 q 497 482 526 517 q 450 376 458 438 q 461 261 442 315 q 540 163 485 199 q 663 128 596 128 m 917 -103 q 919 -107 919 -106 q 921 -110 919 -108 q 926 -119 922 -112 q 938 -137 929 -125 q 667 -210 806 -210 q 458 -168 558 -210 q 281 -53 357 -126 q 158 120 204 19 q 113 339 113 221 l 113 343 q 135 508 113 429 q 201 653 158 586 q 306 772 243 719 q 451 857 369 824 q 671 900 556 900 q 784 890 728 900 q 893 857 840 879 q 1140 660 1054 792 q 1231 356 1226 528 l 1231 338 q 1226 262 1231 303 q 1210 181 1221 221 q 1178 108 1199 142 q 1128 51 1158 74 q 1072 27 1101 32 q 1013 30 1042 22 q 958 56 983 38 q 914 100 933 74 q 892 138 900 119 q 878 179 885 157 l 849 151 q 761 94 810 113 q 662 76 713 76 q 564 93 611 75 q 479 145 517 111 q 419 228 442 179 q 397 342 397 278 q 439 489 397 424 q 558 586 481 554 q 661 606 608 607 q 767 585 714 606 q 802 568 788 576 q 828 550 817 560 q 851 528 840 540 q 876 503 863 517 l 914 583 l 928 583 l 928 229 q 942 153 928 186 q 969 113 951 131 q 1008 85 986 94 q 1052 78 1029 76 q 1097 94 1075 79 q 1141 145 1125 114 q 1165 213 1157 176 q 1176 286 1174 250 q 1178 350 1178 322 q 1097 631 1175 510 q 868 811 1018 753 q 667 849 769 849 q 468 808 565 849 q 242 624 319 747 q 164 342 164 501 q 239 63 164 185 q 458 -121 314 -58 q 690 -166 571 -169 q 917 -103 810 -162 z "},"A":{"ha":875,"x_min":50,"x_max":824,"o":"m 50 0 l 406 939 l 465 939 l 824 0 l 769 0 l 696 192 l 178 192 l 106 0 l 50 0 m 199 243 l 676 243 l 436 871 l 199 243 z "},"B":{"ha":807,"x_min":83,"x_max":728,"o":"m 476 450 l 136 450 l 136 51 l 476 51 q 554 67 518 51 q 617 110 590 83 q 660 174 644 138 q 675 251 675 210 q 660 329 675 293 q 617 392 644 365 q 554 435 590 419 q 476 450 518 450 m 574 485 q 616 460 597 471 q 654 429 635 449 q 725 282 717 367 q 727 267 726 275 q 728 251 728 258 q 708 154 728 200 q 654 74 689 108 q 574 20 619 40 q 476 0 529 0 l 83 0 l 83 939 l 443 939 q 563 908 510 939 q 649 826 617 876 q 687 715 681 776 q 665 592 693 653 q 626 532 647 553 q 574 485 604 511 m 136 503 l 444 503 l 449 503 q 523 518 489 503 q 583 559 557 533 q 623 620 608 585 q 638 694 638 656 q 622 769 638 735 q 581 831 607 804 q 519 872 554 857 q 444 888 485 888 l 136 888 l 136 503 z "},"C":{"ha":940,"x_min":64,"x_max":878,"o":"m 540 -10 q 349 27 436 -10 q 198 128 261 64 q 99 279 135 192 q 64 468 64 367 q 65 486 64 481 q 106 672 68 586 q 208 819 143 757 q 359 917 272 882 q 546 951 446 951 q 724 917 638 951 q 878 818 811 882 l 840 783 q 710 867 783 836 q 622 892 667 885 q 532 899 578 900 q 372 863 451 896 q 235 772 292 831 q 147 639 176 718 q 115 481 118 560 q 143 306 113 388 q 206 197 167 246 q 295 113 244 147 q 406 59 346 78 q 532 40 467 40 q 692 66 614 39 q 842 142 771 93 l 874 101 q 715 19 799 49 q 540 -10 632 -10 z "},"D":{"ha":901,"x_min":89,"x_max":833,"o":"m 364 0 l 89 0 l 89 939 l 364 939 q 498 920 433 939 q 618 867 563 901 q 718 781 674 832 q 792 668 763 731 q 823 572 813 622 q 833 469 833 521 q 800 292 833 375 q 730 171 775 225 q 628 78 685 117 q 503 20 571 40 q 364 0 435 0 m 140 51 l 364 51 l 363 51 q 544 92 458 51 q 690 203 631 132 q 750 303 728 249 q 778 417 772 358 q 776 534 785 475 q 744 646 768 593 q 680 747 719 703 q 590 823 640 792 q 483 871 540 854 q 364 888 425 888 l 140 888 l 140 51 z "},"E":{"ha":729,"x_min":93,"x_max":653,"o":"m 144 503 l 569 503 l 569 451 l 144 451 l 144 51 l 640 51 l 653 0 l 93 1 l 93 939 l 653 939 l 640 888 l 144 888 l 144 503 z "},"F":{"ha":722,"x_min":94,"x_max":656,"o":"m 146 503 l 575 503 l 575 451 l 146 451 l 146 0 l 94 0 l 94 939 l 656 939 l 643 888 l 146 888 l 146 528 l 146 503 z "},"G":{"ha":1022,"x_min":71,"x_max":928,"o":"m 928 0 l 915 0 l 878 79 l 854 65 q 777 28 814 43 q 703 3 740 13 q 626 -11 665 -7 q 540 -15 586 -15 q 400 8 468 -14 q 274 68 332 29 q 172 162 217 107 q 101 285 128 217 q 77 382 83 333 q 71 482 71 431 q 112 669 74 583 q 215 817 150 754 q 368 914 281 879 q 556 949 456 949 q 732 914 644 949 q 883 817 819 879 l 846 781 q 715 864 785 838 q 538 897 629 900 q 372 860 447 893 q 241 773 296 828 q 155 643 186 718 q 121 479 124 568 q 126 390 119 435 q 149 304 133 346 q 211 195 172 243 q 301 113 250 147 q 411 60 351 79 q 535 38 471 40 q 708 58 622 33 q 864 131 793 82 l 876 138 l 876 450 l 567 450 l 567 501 l 928 501 l 928 250 l 928 0 z "},"H":{"ha":853,"x_min":96,"x_max":760,"o":"m 147 503 l 708 503 l 707 939 l 758 939 l 760 0 l 708 0 l 708 451 l 147 451 l 147 0 l 96 0 l 96 939 l 147 939 l 147 503 z "},"I":{"ha":317,"x_min":126,"x_max":182,"o":"m 126 0 l 126 939 l 182 939 l 182 0 l 126 0 z "},"J":{"ha":721,"x_min":35,"x_max":624,"o":"m 72 114 q 126 76 96 93 q 193 48 157 58 q 270 38 229 38 q 357 50 311 38 q 481 122 428 71 q 535 190 513 151 q 567 278 557 229 q 571 311 571 294 q 572 326 572 318 q 572 343 572 335 l 572 938 l 624 938 l 624 347 q 606 225 624 281 q 547 118 586 168 q 531 99 539 108 q 514 82 522 90 q 407 13 465 38 q 286 -14 349 -11 l 271 -14 q 157 6 213 -14 q 53 63 101 25 q 44 70 47 67 q 35 78 40 74 l 72 114 z "},"K":{"ha":785,"x_min":108,"x_max":708,"o":"m 589 939 l 660 939 l 226 476 l 708 0 l 636 0 l 160 471 l 160 0 l 108 0 l 108 939 l 160 939 l 160 479 l 589 939 z "},"L":{"ha":653,"x_min":93,"x_max":582,"o":"m 569 51 l 582 0 l 93 0 l 93 939 l 144 939 l 144 51 l 569 51 z "},"M":{"ha":1058,"x_min":100,"x_max":963,"o":"m 510 421 q 520 405 515 413 q 531 389 525 397 l 900 939 l 963 939 l 963 0 l 913 0 l 913 865 l 532 299 l 150 864 l 150 0 l 100 0 l 100 939 l 161 939 l 510 421 z "},"N":{"ha":860,"x_min":99,"x_max":765,"o":"m 99 0 l 99 940 l 160 940 l 714 78 l 714 940 l 765 940 l 764 0 l 703 0 l 149 863 l 149 0 l 99 0 z "},"O":{"ha":1094,"x_min":64,"x_max":1025,"o":"m 544 950 q 736 913 649 950 q 888 812 824 876 q 989 659 953 747 q 1025 469 1025 571 q 988 278 1025 367 q 885 126 950 190 q 733 26 821 63 q 544 -10 646 -10 q 353 27 440 -10 q 201 128 265 64 q 100 281 136 193 q 64 471 64 369 q 101 663 64 575 q 203 814 139 750 q 356 914 268 878 q 544 950 443 950 m 540 899 q 371 865 449 899 q 236 774 293 832 q 147 637 179 715 q 115 469 115 558 q 148 299 115 378 q 238 164 181 221 q 374 74 296 107 q 544 42 453 42 q 713 73 635 42 q 847 160 790 104 q 938 292 904 215 q 972 457 971 368 q 944 631 976 546 q 880 744 921 694 q 785 828 839 794 q 669 881 732 863 q 540 899 607 899 z "},"P":{"ha":807,"x_min":89,"x_max":728,"o":"m 142 303 l 142 0 l 89 0 l 89 939 l 397 939 q 466 933 433 939 q 531 915 499 928 q 588 885 561 903 q 640 839 615 867 q 705 740 683 794 q 728 626 726 685 l 728 619 q 708 510 728 564 q 649 411 689 456 q 535 328 599 356 q 394 303 471 303 l 142 303 m 142 888 l 142 356 l 394 356 q 517 378 464 356 q 619 456 575 400 q 663 536 647 493 q 676 624 678 579 q 661 710 676 668 q 617 789 646 753 q 517 864 574 842 q 397 888 465 888 l 142 888 z "},"Q":{"ha":1097,"x_min":67,"x_max":1028,"o":"m 838 144 q 738 241 788 193 q 639 338 689 289 l 639 338 l 675 375 l 874 182 l 890 204 q 928 263 913 232 q 954 325 943 293 q 970 397 965 361 q 975 468 975 432 q 967 553 975 511 q 944 633 960 594 q 854 769 913 714 q 714 861 794 829 q 547 894 638 894 q 374 858 457 894 q 296 817 332 842 q 229 760 260 792 q 147 626 174 700 q 118 465 118 551 q 149 299 118 379 q 239 163 181 222 q 303 109 268 132 q 379 69 339 86 q 461 45 419 54 q 547 36 503 36 q 689 60 618 36 q 754 88 722 71 q 814 126 786 104 l 838 144 m 201 125 q 101 278 135 193 l 101 278 q 67 464 67 365 q 74 560 67 513 q 101 651 82 607 q 142 732 118 693 q 201 804 167 771 q 276 865 236 839 q 358 908 315 890 q 549 946 453 946 q 644 935 596 944 q 736 908 692 926 q 819 865 779 890 q 893 804 858 839 q 992 654 957 740 q 1018 563 1010 610 q 1028 468 1026 517 l 1028 463 q 1001 303 1028 378 q 924 161 975 224 l 910 143 l 996 57 l 957 19 l 874 107 l 856 93 q 785 45 822 65 q 707 11 747 25 q 546 -15 629 -15 l 536 -15 q 354 24 444 -14 q 274 67 313 42 q 201 125 235 92 z "},"R":{"ha":814,"x_min":92,"x_max":732,"o":"m 653 829 q 712 730 694 782 q 729 628 729 678 q 717 536 729 579 q 689 464 706 493 q 581 350 650 393 q 422 304 511 307 l 732 0 l 658 0 l 351 304 l 143 304 l 143 0 l 92 0 l 92 938 l 396 938 q 540 910 474 938 q 653 829 607 882 m 143 886 l 143 354 l 403 354 q 510 374 460 354 q 599 430 561 394 q 657 515 636 465 q 678 622 678 564 q 656 731 678 682 q 595 814 633 779 q 506 867 557 849 q 399 886 456 886 l 143 886 z "},"S":{"ha":793,"x_min":64,"x_max":711,"o":"m 636 792 q 542 864 599 836 l 542 864 q 397 900 474 899 q 314 892 358 900 q 231 865 269 885 q 172 824 197 849 q 136 764 147 800 q 128 702 125 731 q 143 650 131 674 q 183 602 158 622 q 239 567 207 582 q 320 533 279 547 q 404 504 361 518 q 469 484 436 494 q 533 460 501 474 q 623 406 582 439 q 688 332 664 374 q 710 240 710 288 q 708 202 711 221 q 697 164 704 183 q 651 86 681 119 q 572 28 618 51 q 481 -6 531 4 q 382 -17 432 -17 q 183 28 275 -17 q 108 76 140 47 q 85 97 96 86 q 64 118 75 107 l 106 150 q 170 95 135 118 q 246 57 206 72 q 337 37 290 42 q 428 38 383 32 q 513 58 472 43 q 583 96 553 72 q 649 181 631 131 q 658 254 663 221 q 636 315 654 288 q 584 372 617 347 q 513 413 551 396 q 453 433 485 424 q 390 454 422 443 q 302 483 347 468 q 217 519 257 499 q 146 566 178 539 q 94 631 114 593 q 82 663 86 646 q 75 700 78 681 q 86 778 74 735 q 128 851 100 819 q 194 903 157 882 q 289 939 239 928 q 389 950 339 950 l 400 950 q 565 908 490 947 q 678 824 631 876 l 636 792 z "},"T":{"ha":751,"x_min":53,"x_max":690,"o":"m 346 0 l 344 888 l 53 888 l 53 939 l 690 939 l 690 888 l 396 888 l 397 0 l 346 0 z "},"U":{"ha":871,"x_min":101,"x_max":768,"o":"m 717 332 l 717 940 l 768 940 l 768 332 q 743 197 768 260 q 674 87 718 133 q 568 14 629 40 q 435 -12 507 -12 q 333 3 382 -12 q 243 48 285 19 q 170 117 201 76 q 121 207 139 157 q 101 332 101 260 l 101 939 l 153 939 l 153 331 q 174 217 153 271 q 233 124 196 164 q 322 60 271 83 q 435 38 374 38 q 549 61 497 38 q 639 124 601 85 q 697 218 676 164 q 717 332 717 272 z "},"V":{"ha":878,"x_min":43,"x_max":828,"o":"m 99 938 q 267 501 183 718 q 436 64 351 283 l 772 938 l 828 938 l 465 0 l 406 0 l 43 938 l 99 938 z "},"W":{"ha":1283,"x_min":32,"x_max":1243,"o":"m 344 79 l 603 939 l 671 939 l 931 79 l 1189 939 l 1243 939 l 961 0 l 900 0 l 638 875 l 375 0 l 314 0 l 32 939 l 85 939 l 344 79 z "},"X":{"ha":751,"x_min":42,"x_max":708,"o":"m 375 517 l 647 939 l 708 939 l 406 468 l 707 0 l 646 0 l 375 421 l 104 0 l 43 0 l 344 468 l 42 939 l 103 939 l 375 517 z "},"Y":{"ha":776,"x_min":33,"x_max":732,"o":"m 357 0 l 357 386 l 33 939 l 93 939 l 382 444 l 671 939 l 732 939 l 407 386 l 407 0 l 357 0 z "},"Z":{"ha":826,"x_min":50,"x_max":764,"o":"m 50 50 q 374 469 213 261 q 699 889 535 678 l 108 889 l 108 940 l 763 940 l 764 890 l 113 53 l 763 53 l 763 1 l 50 1 l 50 50 z "},"[":{"ha":358,"x_min":106,"x_max":253,"o":"m 156 -133 l 253 -133 l 253 -185 l 106 -185 l 106 1124 l 253 1124 l 253 1071 l 156 1071 l 156 -108 l 156 -133 z "},"\\":{"ha":538,"x_min":36,"x_max":501,"o":"m 450 -93 q 243 469 346 190 q 36 1032 140 749 l 88 1032 q 294 469 192 749 q 501 -93 397 190 l 450 -93 z "},"]":{"ha":349,"x_min":93,"x_max":239,"o":"m 189 1069 l 93 1069 l 93 1122 l 239 1122 l 239 -187 l 93 -187 l 93 -135 l 189 -135 l 189 1044 l 189 1069 z "},"^":{"ha":576,"x_min":61,"x_max":504,"o":"m 307 939 q 406 683 356 810 q 504 426 456 556 l 504 426 l 467 426 l 285 850 l 99 426 l 61 426 q 163 683 113 556 q 264 939 213 810 l 307 939 z "},"_":{"ha":714,"x_min":64,"x_max":636,"o":"m 636 -246 l 64 -246 l 64 -214 l 350 -214 l 636 -214 l 636 -246 z "},"`":{"ha":268,"x_min":54,"x_max":208,"o":"m 124 940 q 208 831 167 882 l 171 831 l 54 940 l 124 940 z "},"a":{"ha":801,"x_min":79,"x_max":708,"o":"m 708 0 l 696 0 l 696 1 l 639 126 l 613 97 q 494 15 560 43 q 353 -12 428 -12 q 258 0 307 -12 q 170 38 210 13 q 105 103 131 64 q 79 196 79 143 q 108 299 79 258 q 182 361 138 339 q 281 392 226 383 q 386 400 335 400 q 535 390 463 400 q 656 369 607 379 l 656 400 q 585 579 656 518 q 400 640 514 640 q 275 619 336 640 q 168 557 214 597 l 131 592 q 242 662 179 636 q 371 692 304 688 q 503 676 442 692 q 610 625 564 660 q 682 535 656 590 q 708 404 708 481 l 708 0 m 656 317 q 515 339 594 328 q 353 347 435 350 q 276 338 313 346 q 210 316 239 331 q 161 279 181 301 q 135 225 142 257 q 138 153 126 186 q 178 96 150 119 q 249 56 208 69 q 329 39 289 42 q 444 52 390 35 q 542 103 499 69 q 613 185 585 136 q 651 292 642 233 l 656 317 z "},"b":{"ha":826,"x_min":92,"x_max":753,"o":"m 307 615 q 230 572 264 599 q 174 507 196 546 l 174 506 q 144 429 154 472 q 134 342 135 386 q 143 253 133 297 q 171 174 153 210 q 182 158 175 165 q 252 88 211 117 q 340 47 293 60 q 437 38 386 33 q 536 65 488 42 q 660 178 618 104 q 700 342 703 253 q 684 453 699 400 q 628 550 669 507 q 478 632 565 615 q 307 615 390 649 m 411 -14 q 290 9 349 -14 q 181 81 231 32 l 182 81 l 156 106 l 104 0 l 92 0 l 93 993 l 144 993 l 144 557 q 210 621 175 593 q 299 668 246 649 q 429 690 363 692 q 558 661 496 689 q 664 588 619 635 q 731 478 708 542 q 747 412 742 446 q 753 342 753 378 q 747 273 753 307 q 731 207 742 239 q 678 113 711 154 q 602 44 644 72 q 510 1 560 15 q 411 -14 461 -14 z "},"c":{"ha":714,"x_min":68,"x_max":642,"o":"m 424 -11 q 411 -11 417 -11 q 399 -10 406 -11 q 267 23 328 -6 q 162 98 206 51 q 93 206 118 144 q 68 340 68 268 q 76 411 68 374 q 99 485 83 449 q 135 552 114 521 q 185 604 157 583 q 291 671 233 649 q 414 693 349 693 q 533 668 475 692 q 638 600 590 644 l 600 565 q 511 622 560 603 q 413 640 463 640 q 311 623 361 642 q 219 567 261 604 q 206 553 211 561 q 142 453 163 508 q 121 340 121 399 q 143 222 121 276 q 204 128 165 168 q 297 66 243 89 q 413 40 350 43 q 470 44 442 39 q 526 58 499 49 q 571 76 549 65 q 613 100 593 88 l 642 56 q 533 4 589 19 q 424 -11 476 -11 z "},"d":{"ha":836,"x_min":81,"x_max":742,"o":"m 660 507 q 526 617 617 581 q 356 633 443 650 q 206 551 268 617 q 150 455 165 508 q 133 343 135 401 q 174 181 132 256 q 297 67 215 107 q 397 39 346 43 q 494 48 447 35 q 583 90 542 61 q 653 160 624 118 q 658 167 656 163 q 663 175 660 171 q 691 255 682 211 q 699 343 700 299 q 689 431 699 388 q 660 507 679 474 m 421 -14 q 322 1 371 -14 q 232 45 274 17 q 157 115 190 74 q 104 208 124 156 q 87 274 93 240 q 82 343 81 308 q 103 479 82 417 q 169 589 125 543 q 276 663 214 635 q 405 692 339 690 q 535 669 471 693 q 623 622 588 650 q 689 557 658 594 l 689 993 l 740 993 l 742 0 l 729 0 l 679 107 l 653 82 l 653 82 q 543 10 603 33 q 421 -14 483 -14 z "},"e":{"ha":803,"x_min":65,"x_max":738,"o":"m 644 44 q 539 1 599 18 q 422 -15 479 -15 q 281 12 346 -15 q 167 85 215 39 q 92 197 119 132 q 65 338 65 261 q 91 475 65 411 q 163 587 117 539 q 272 663 208 635 q 411 690 335 690 q 548 663 488 690 q 651 588 608 635 q 715 476 693 540 q 738 338 738 413 l 738 311 l 117 311 l 122 281 q 159 181 132 225 q 226 104 186 136 q 316 55 265 72 q 424 38 367 38 q 522 52 472 38 q 614 90 572 67 l 644 44 m 117 363 q 417 363 304 363 q 589 364 529 363 q 685 364 658 364 l 681 393 q 593 572 665 506 q 408 639 521 639 q 260 600 331 639 q 153 488 189 561 q 130 426 136 454 q 117 363 124 399 z "},"f":{"ha":501,"x_min":68,"x_max":485,"o":"m 186 0 l 186 625 l 68 625 l 68 676 l 188 676 l 188 733 q 244 900 192 831 q 378 994 294 969 q 446 1007 411 1004 q 466 1006 457 1007 q 485 1004 475 1006 l 461 954 l 446 954 q 365 933 401 951 q 300 886 328 915 q 256 819 272 857 q 238 736 239 781 l 238 678 l 432 678 l 432 626 l 238 626 l 238 0 l 186 0 z "},"g":{"ha":831,"x_min":72,"x_max":732,"o":"m 203 -197 q 291 -253 243 -233 q 389 -272 339 -272 q 490 -255 440 -274 q 582 -199 540 -236 q 656 -95 631 -150 q 681 28 681 -40 l 681 121 q 638 76 663 99 q 526 7 589 29 q 401 -12 464 -15 q 270 19 331 -10 q 166 97 210 49 q 97 207 122 144 q 72 339 72 269 q 97 471 72 407 q 171 588 122 535 l 172 589 q 281 664 218 636 q 411 692 344 692 q 560 656 496 692 q 669 571 625 621 l 718 678 l 732 678 l 732 28 q 706 -107 732 -43 q 635 -219 681 -171 q 526 -297 589 -268 q 392 -325 464 -325 q 269 -301 328 -325 q 164 -232 210 -276 l 203 -197 m 658 183 q 683 256 675 213 q 691 344 692 299 q 681 432 690 389 q 653 506 671 475 q 551 603 614 568 q 413 639 488 639 q 298 615 350 639 q 207 549 246 590 q 147 454 168 508 q 125 339 125 400 q 147 224 125 279 q 208 128 169 169 q 299 63 246 88 q 413 39 351 39 q 555 78 488 39 q 658 183 622 117 z "},"h":{"ha":765,"x_min":93,"x_max":671,"o":"m 619 -1 l 619 400 l 619 404 q 615 451 621 428 q 600 499 610 475 q 577 543 590 522 q 546 581 564 564 q 474 625 511 613 q 434 635 454 632 q 393 638 414 638 q 314 622 357 638 q 233 578 271 607 q 178 521 201 554 q 144 447 154 488 l 144 444 l 144 0 l 93 0 l 93 471 l 93 993 l 144 993 l 144 557 q 205 619 174 593 q 285 665 236 644 q 342 683 313 678 q 399 690 371 689 q 493 674 450 690 q 537 652 517 665 q 576 622 557 639 q 647 522 621 583 q 671 407 671 468 l 671 401 l 671 -1 l 619 -1 z "},"i":{"ha":293,"x_min":90,"x_max":200,"o":"m 200 883 q 183 846 200 861 q 146 829 169 829 q 107 846 122 829 q 90 883 90 863 q 107 922 90 906 q 146 939 124 939 q 183 922 167 939 q 196 905 192 915 q 200 883 200 894 m 168 679 l 168 0 l 164 0 l 114 0 l 114 256 l 114 332 q 114 418 114 376 q 118 501 114 460 q 133 586 122 543 q 164 679 143 629 l 168 679 z "},"j":{"ha":328,"x_min":-24,"x_max":247,"o":"m 247 885 q 232 847 247 863 q 194 832 217 832 q 157 847 172 832 q 142 885 142 863 q 157 922 142 907 q 194 938 172 938 q 232 922 217 938 q 247 885 247 907 m 221 -58 q 200 -164 221 -115 q 142 -250 179 -212 l 142 -250 q 67 -303 110 -282 q -24 -328 25 -324 l -24 -276 q 106 -212 54 -265 q 152 -143 135 -183 q 169 -58 169 -103 l 169 261 l 169 329 q 169 422 169 379 q 174 506 169 465 q 190 588 179 546 q 218 676 200 629 l 221 676 l 221 -58 z "},"k":{"ha":622,"x_min":104,"x_max":567,"o":"m 539 676 l 222 357 l 567 0 l 493 0 l 156 350 l 156 0 l 104 0 l 104 993 l 156 993 l 156 364 l 156 358 l 469 676 l 539 676 z "},"l":{"ha":288,"x_min":108,"x_max":165,"o":"m 108 0 l 108 993 l 165 993 l 165 0 l 108 0 z "},"m":{"ha":1190,"x_min":89,"x_max":1099,"o":"m 568 0 l 568 407 l 568 410 q 566 455 568 433 q 557 499 564 476 q 506 585 544 546 q 443 625 475 613 q 371 639 411 639 q 294 624 329 638 q 231 586 258 610 q 177 525 199 560 q 142 450 156 490 l 140 446 l 140 0 l 89 0 l 89 678 l 99 678 l 146 575 q 248 658 190 626 q 375 690 306 690 q 493 658 438 690 q 581 572 546 631 l 600 540 q 690 636 636 596 q 819 688 743 676 q 958 668 892 699 q 1014 630 988 653 q 1061 575 1040 607 q 1092 496 1083 538 q 1097 454 1096 476 q 1099 408 1099 432 l 1099 0 l 1047 0 l 1047 408 q 1046 451 1047 431 q 1039 493 1044 472 q 1024 534 1033 514 q 997 574 1014 554 q 922 626 965 608 q 878 638 901 635 q 832 638 856 640 q 699 578 758 631 q 652 521 672 553 q 621 449 632 489 l 619 444 l 619 0 l 568 0 z "},"n":{"ha":764,"x_min":93,"x_max":665,"o":"m 614 390 q 612 428 614 396 q 600 492 610 461 q 583 534 593 514 q 558 571 574 554 q 490 622 532 604 q 404 638 449 638 q 317 624 357 638 q 246 586 278 610 q 183 524 208 560 q 146 449 157 488 l 144 446 l 144 0 l 93 0 l 93 678 l 103 678 l 153 567 l 179 593 q 285 664 219 636 q 343 683 313 675 q 404 690 374 690 q 522 663 471 690 q 611 586 579 635 q 650 504 638 553 q 662 455 658 481 q 665 401 665 429 l 665 0 l 614 0 l 614 390 z "},"o":{"ha":804,"x_min":63,"x_max":742,"o":"m 401 690 q 540 663 478 690 q 648 588 603 636 q 717 476 693 540 q 742 339 742 413 q 717 199 742 264 q 646 88 692 135 q 537 13 600 40 q 397 -14 474 -14 q 258 13 319 -14 q 152 88 196 40 q 85 200 108 136 q 63 338 63 264 q 115 534 63 449 q 269 663 167 619 q 401 690 332 690 m 671 458 q 623 541 653 507 q 557 597 593 575 q 481 628 521 618 q 404 639 442 639 q 287 616 340 639 q 195 553 233 593 q 136 458 157 513 q 115 343 115 404 q 133 222 113 279 q 238 87 164 136 q 403 38 311 38 q 567 87 493 38 q 672 221 642 136 q 690 342 690 276 q 685 401 689 371 q 671 458 681 431 z "},"p":{"ha":839,"x_min":94,"x_max":756,"o":"m 422 693 q 559 665 497 693 q 665 589 621 638 q 732 475 708 540 q 756 335 756 410 q 731 198 756 261 q 663 88 707 135 q 559 14 619 40 q 425 -12 499 -12 q 271 22 343 -12 q 147 121 199 57 l 147 -315 l 96 -315 l 94 678 l 107 678 l 157 571 l 183 597 q 296 669 233 646 q 422 693 358 693 m 149 249 q 187 160 161 199 q 249 94 213 121 q 329 53 285 67 q 424 39 374 39 q 535 61 482 39 q 631 126 589 83 q 688 223 672 169 q 704 335 703 276 q 685 454 704 399 q 629 551 665 510 q 541 617 593 593 q 425 642 489 642 q 353 632 390 642 q 281 604 315 622 q 219 560 247 586 q 175 503 192 535 q 140 381 147 450 q 149 249 133 311 z "},"q":{"ha":826,"x_min":75,"x_max":735,"o":"m 408 692 q 533 668 471 692 q 646 596 596 644 l 646 594 l 672 569 l 722 676 l 735 676 l 735 -317 l 683 -317 l 683 119 q 558 22 629 57 q 404 -14 488 -14 q 306 1 354 -14 q 217 42 257 15 q 145 109 176 69 q 97 197 114 149 q 75 335 75 258 q 99 475 75 410 q 166 588 122 540 q 272 664 210 636 q 408 692 333 692 m 653 169 q 683 247 672 204 q 693 334 693 289 q 684 423 693 379 q 656 503 675 467 q 646 518 650 514 q 540 608 604 576 q 406 640 476 640 q 290 616 342 640 q 201 550 238 592 q 146 453 165 508 q 126 335 126 397 q 143 223 128 276 q 199 126 158 169 q 295 60 242 82 q 407 39 349 39 q 479 47 443 39 q 548 72 515 56 q 608 113 581 89 q 653 169 635 138 z "},"r":{"ha":488,"x_min":110,"x_max":497,"o":"m 397 683 q 447 678 422 683 q 497 665 472 674 l 496 665 l 471 615 q 375 631 424 638 q 284 600 326 625 q 209 535 242 575 q 161 449 176 494 l 160 444 l 160 0 l 110 0 l 110 676 l 119 676 l 169 565 l 197 592 q 244 633 218 615 q 301 664 271 650 q 397 683 346 683 z "},"s":{"ha":664,"x_min":65,"x_max":588,"o":"m 515 567 q 474 599 496 586 q 429 619 453 611 l 429 619 q 353 637 392 633 q 278 635 314 640 q 210 618 242 631 q 157 588 178 606 q 126 544 135 568 q 140 460 108 496 q 169 434 153 444 q 206 414 186 424 q 269 390 236 400 q 336 371 303 381 q 460 330 400 353 q 557 258 521 307 q 586 194 581 229 q 588 175 588 188 q 575 115 588 149 q 528 49 561 78 q 456 7 497 22 q 368 -15 414 -8 q 344 -17 356 -17 q 319 -18 332 -18 q 247 -11 283 -18 q 174 8 210 -4 q 65 76 115 31 l 106 110 q 194 56 142 75 q 276 36 235 40 q 358 36 318 32 q 434 53 399 40 q 493 88 469 67 q 528 136 518 108 q 535 191 540 167 q 512 234 529 215 q 469 267 494 253 q 415 292 443 282 q 372 306 393 300 q 335 317 351 313 l 322 321 l 317 322 q 252 341 286 331 q 186 366 218 351 q 128 401 154 381 q 86 449 101 421 q 69 503 72 474 q 69 531 67 517 q 78 563 72 546 q 112 617 89 594 q 165 654 135 639 q 242 681 201 672 q 324 689 283 689 l 333 689 q 468 658 407 686 q 514 633 492 647 q 554 600 536 619 l 515 567 z "},"t":{"ha":515,"x_min":61,"x_max":460,"o":"m 199 156 l 199 600 l 199 600 l 199 625 l 61 625 l 61 676 l 199 676 l 199 854 l 250 854 l 250 678 l 425 678 l 425 626 l 250 626 l 250 154 q 267 89 250 114 q 309 51 283 64 q 368 38 335 39 q 436 47 401 38 l 460 -3 q 415 -12 438 -8 q 369 -15 393 -15 q 328 -12 349 -15 q 289 0 308 -8 q 223 64 246 21 q 199 156 200 107 z "},"u":{"ha":761,"x_min":93,"x_max":664,"o":"m 144 286 l 144 285 l 144 281 q 200 117 144 185 q 268 60 229 79 q 350 40 307 42 q 435 51 393 38 q 514 92 478 65 q 575 155 550 119 q 611 229 600 190 l 613 232 l 613 678 l 664 678 l 664 0 l 654 0 l 603 111 q 501 23 561 58 q 361 -12 442 -12 q 255 9 303 -12 q 172 68 207 31 q 115 161 136 108 q 93 275 93 214 l 93 678 l 144 678 l 144 286 z "},"v":{"ha":672,"x_min":32,"x_max":636,"o":"m 335 63 l 582 681 l 636 681 l 365 0 l 304 0 l 32 681 l 88 681 l 335 63 z "},"w":{"ha":1032,"x_min":42,"x_max":983,"o":"m 290 75 l 482 681 l 543 681 l 735 75 l 929 679 l 983 679 l 764 0 l 704 0 l 513 606 l 321 0 l 261 0 l 42 679 l 96 679 l 290 75 z "},"x":{"ha":667,"x_min":54,"x_max":615,"o":"m 118 676 l 335 382 l 551 676 l 615 676 l 367 338 l 614 0 l 550 0 l 335 294 l 119 0 l 56 0 l 303 338 l 54 676 l 118 676 z "},"y":{"ha":710,"x_min":49,"x_max":646,"o":"m 104 676 q 213 402 158 538 q 319 128 267 267 l 343 68 l 368 126 q 456 340 413 231 q 544 561 500 450 q 564 610 554 585 q 590 676 574 636 l 646 676 q 570 490 608 583 q 492 296 532 396 q 408 90 451 193 q 321 -118 365 -12 q 279 -194 304 -158 q 222 -256 254 -229 q 149 -300 189 -283 q 65 -321 110 -317 l 65 -269 q 193 -213 140 -262 q 274 -97 246 -164 l 314 -1 l 49 676 l 104 676 z "},"z":{"ha":671,"x_min":69,"x_max":593,"o":"m 492 585 q 507 606 499 596 q 524 626 515 615 l 107 626 l 107 678 l 590 678 l 590 635 l 136 53 l 593 53 l 593 0 l 69 0 l 69 43 l 492 585 z "},"{":{"ha":413,"x_min":75,"x_max":310,"o":"m 310 1067 q 248 1037 272 1060 q 224 974 224 1014 l 224 642 q 210 550 224 588 q 185 503 199 519 q 151 468 172 488 l 171 450 q 213 381 201 421 q 224 296 224 340 l 224 -36 q 248 -100 224 -76 q 310 -131 272 -124 l 310 -183 q 211 -137 250 -175 q 172 -36 172 -99 l 172 296 q 152 391 172 350 q 75 440 132 432 l 75 496 q 152 546 132 506 q 172 642 172 586 l 172 974 q 212 1074 172 1035 q 310 1119 251 1113 l 310 1067 z "},"|":{"ha":321,"x_min":131,"x_max":181,"o":"m 131 -178 l 131 1131 l 181 1131 l 181 -178 l 131 -178 z "},"}":{"ha":439,"x_min":110,"x_max":346,"o":"m 110 1068 l 110 1121 q 209 1075 169 1114 q 249 975 249 1036 l 249 643 q 269 547 249 588 q 346 497 289 507 l 346 442 q 269 392 289 433 q 249 297 249 351 l 249 -35 q 209 -135 249 -97 q 110 -181 169 -174 l 110 -129 q 173 -98 149 -122 q 197 -33 197 -74 l 197 297 q 208 382 197 342 q 250 451 219 422 l 269 469 q 235 505 249 489 q 211 551 222 521 q 197 642 197 589 l 197 974 q 173 1038 197 1015 q 110 1068 149 1061 z "},"~":{"ha":611,"x_min":79,"x_max":533,"o":"m 421 407 q 346 426 389 407 q 328 437 339 431 q 306 450 317 443 q 285 463 294 457 q 269 474 275 469 q 226 499 247 486 q 178 511 204 513 q 130 485 144 508 q 108 433 115 461 l 79 433 q 83 466 79 450 q 96 497 86 482 q 133 534 111 522 q 179 546 156 546 q 257 521 217 546 l 335 472 q 360 458 342 467 q 390 447 378 450 q 465 455 436 433 q 504 521 494 476 l 533 521 q 500 439 531 471 q 421 407 469 407 z "},"¡":{"ha":303,"x_min":93,"x_max":201,"o":"m 146 679 q 181 665 165 679 q 199 629 197 651 l 199 626 q 183 589 201 607 q 155 574 171 576 q 126 578 139 572 q 103 596 113 583 q 93 626 93 608 q 103 657 93 644 q 128 676 113 669 q 138 678 133 678 q 146 679 142 679 m 160 418 q 163 367 163 392 q 167 318 164 342 q 173 194 169 256 q 176 69 176 132 l 176 -260 l 114 -260 l 114 69 q 120 244 114 157 q 132 418 126 331 l 160 418 z "},"¢":{"ha":753,"x_min":79,"x_max":669,"o":"m 421 939 l 421 939 l 447 939 l 446 822 l 469 819 q 577 790 526 813 q 669 729 628 768 l 632 693 q 535 751 589 732 q 427 769 482 771 q 320 748 372 768 q 225 688 268 728 q 156 588 179 644 q 131 474 132 532 q 153 358 131 415 q 219 257 175 301 q 315 193 261 215 q 424 169 368 171 q 533 186 479 167 q 632 244 588 206 l 669 208 q 588 153 632 175 q 519 127 550 133 q 447 115 488 121 l 446 -1 l 421 -1 l 421 115 l 397 118 q 272 155 331 125 q 171 232 214 185 q 103 340 128 279 q 79 468 79 400 q 103 597 79 536 q 171 706 128 658 q 272 783 214 753 q 397 819 331 813 l 421 822 l 421 939 z "},"£":{"ha":806,"x_min":78,"x_max":719,"o":"m 206 51 l 206 456 l 78 456 l 78 497 l 206 497 l 206 647 q 222 769 206 714 q 273 866 239 825 q 358 929 307 907 q 479 951 410 951 q 614 917 554 951 q 711 819 674 882 l 665 796 q 476 900 601 900 q 375 880 417 900 q 308 825 333 860 q 269 743 282 790 q 257 642 257 696 l 257 497 l 565 497 l 565 456 l 257 456 l 257 51 l 719 51 l 719 0 l 79 0 l 79 51 l 206 51 z "},"¤":{"ha":885,"x_min":93,"x_max":789,"o":"m 789 169 l 747 128 l 746 128 l 633 242 l 615 229 q 441 172 536 172 q 267 229 346 172 l 249 242 l 135 128 q 93 169 113 153 l 207 283 l 194 301 q 139 476 139 381 q 194 650 139 571 l 207 668 l 93 782 l 136 824 l 249 710 l 267 722 q 441 779 346 779 q 615 722 536 779 l 633 710 l 747 824 l 789 782 l 675 668 l 688 650 q 730 567 715 611 q 744 476 744 522 q 730 385 744 431 q 688 301 715 340 l 675 285 l 789 169 m 442 206 q 547 227 497 206 q 632 285 596 249 q 690 371 668 321 q 711 476 711 421 q 690 581 711 532 q 632 667 668 631 q 547 726 596 704 q 442 747 497 747 q 337 726 386 747 q 251 667 288 704 q 192 581 214 631 q 171 476 171 532 q 192 371 171 421 q 250 285 214 321 q 336 227 286 249 q 442 206 386 206 z "},"¥":{"ha":775,"x_min":38,"x_max":735,"o":"m 411 326 l 411 301 l 629 301 l 629 260 l 411 260 l 411 0 l 361 0 l 361 260 l 143 260 l 143 301 l 361 301 l 361 385 l 319 456 l 143 456 l 143 497 l 296 497 l 38 939 l 97 939 l 386 444 l 675 939 l 735 939 l 478 497 l 629 497 l 629 456 l 453 456 l 411 385 l 411 326 z "},"¦":{"ha":313,"x_min":129,"x_max":179,"o":"m 179 1107 l 179 593 l 129 593 l 129 1107 l 179 1107 m 179 357 l 179 -156 l 129 -156 l 129 357 l 179 357 z "},"§":{"ha":576,"x_min":89,"x_max":478,"o":"m 238 576 q 183 550 206 568 q 151 508 161 532 q 145 457 140 485 q 172 403 150 429 q 235 360 196 372 q 328 363 275 349 q 371 382 351 369 q 403 413 390 394 q 421 452 417 431 q 415 499 425 474 q 378 548 404 526 q 322 576 353 569 q 281 583 303 583 q 238 576 258 582 m 101 833 q 160 915 115 882 l 161 915 q 279 953 211 953 q 374 931 326 953 q 424 894 401 915 q 463 843 447 872 l 417 826 q 360 882 396 861 q 285 903 325 903 q 217 892 247 904 q 169 858 188 879 q 146 812 151 838 q 150 761 140 786 q 224 688 165 719 q 320 642 279 658 q 396 599 361 625 q 463 513 444 561 q 463 424 478 471 q 408 350 447 378 q 373 330 390 338 q 329 315 356 322 q 411 267 374 294 q 464 188 449 239 q 471 144 471 163 q 469 124 471 133 q 464 104 467 115 q 431 49 453 72 q 379 10 408 25 q 282 -12 335 -12 q 164 24 217 -12 q 94 104 117 54 l 142 119 q 197 60 161 82 q 275 38 232 38 q 344 49 314 36 q 394 81 375 61 q 420 128 414 101 q 415 181 426 154 q 388 220 406 203 q 347 251 369 238 q 301 276 325 265 q 258 296 278 286 q 215 317 236 307 q 175 338 193 326 q 142 366 157 350 q 114 404 126 382 q 95 477 94 440 q 115 546 96 514 q 166 597 135 578 q 238 626 197 617 q 185 653 211 640 q 139 688 160 665 q 101 750 113 717 q 101 833 89 792 z "},"¨":{"ha":563,"x_min":90,"x_max":465,"o":"m 360 1154 q 375 1193 360 1178 q 392 1204 382 1200 q 413 1208 401 1208 q 433 1204 424 1208 q 450 1193 443 1200 q 465 1154 465 1178 q 450 1117 465 1132 q 433 1106 443 1110 q 413 1101 424 1101 q 375 1117 390 1101 q 360 1154 360 1132 m 90 1154 q 106 1193 90 1178 q 122 1204 113 1200 q 143 1208 132 1208 q 164 1204 154 1208 q 181 1193 174 1200 q 196 1154 196 1178 q 181 1117 196 1132 q 164 1106 174 1110 q 143 1101 154 1101 q 106 1117 121 1101 q 90 1154 90 1132 z "},"©":{"ha":1111,"x_min":88,"x_max":1024,"o":"m 861 774 q 718 869 797 838 q 556 901 639 901 q 393 869 472 901 q 250 774 314 838 q 155 632 186 711 q 124 469 124 553 q 155 306 124 386 q 250 164 186 226 q 393 69 314 100 q 556 38 472 38 q 718 69 639 38 q 861 164 797 100 q 956 306 925 226 q 988 469 988 386 q 956 632 988 553 q 861 774 925 711 m 556 936 q 738 899 653 936 q 886 799 822 863 q 987 650 950 735 q 1024 468 1024 565 q 987 286 1024 371 q 886 138 950 201 q 738 38 822 74 q 556 1 653 1 q 374 38 458 1 q 225 138 289 74 q 124 286 161 201 q 88 468 88 371 q 124 651 88 565 q 225 799 161 736 q 374 899 289 863 q 556 936 458 936 m 726 272 q 647 225 690 240 q 560 208 604 210 l 560 210 q 463 226 511 208 q 378 281 415 244 q 372 285 379 281 q 315 372 333 324 q 296 469 296 419 q 315 566 296 518 q 372 653 333 614 l 378 658 q 463 712 415 694 q 560 729 511 729 q 647 713 604 728 q 725 665 689 697 l 688 629 q 558 676 632 674 q 413 619 476 679 l 408 615 q 363 547 378 585 q 347 468 347 508 q 363 390 347 428 q 408 321 378 353 q 413 318 410 321 q 482 274 444 288 q 560 261 519 260 q 628 273 594 261 q 689 308 661 285 l 726 272 z "},"ª":{"ha":661,"x_min":65,"x_max":565,"o":"m 533 661 q 416 680 482 671 q 282 686 350 689 q 218 678 249 685 q 163 660 188 672 q 122 630 139 649 q 100 583 106 611 q 103 526 94 551 q 130 481 111 500 q 175 450 149 463 q 229 432 201 438 q 340 433 285 421 q 439 479 396 446 q 499 547 475 507 q 529 636 522 588 l 533 661 m 565 404 l 554 404 l 515 510 q 458 453 485 476 q 386 413 432 431 q 282 393 336 393 q 185 410 231 393 q 100 467 133 429 q 65 557 67 504 q 69 589 65 572 q 108 660 79 633 q 178 701 138 688 q 268 717 219 714 q 365 716 317 719 q 458 706 414 713 q 533 693 501 699 l 533 724 q 521 803 533 765 q 476 869 508 842 q 396 913 442 900 q 303 924 350 926 q 212 903 257 921 q 132 857 167 886 l 108 881 q 196 932 147 913 q 297 956 244 951 l 319 956 q 417 940 369 956 q 500 890 464 924 q 551 816 536 858 q 565 726 565 774 l 565 404 z "},"«":{"ha":635,"x_min":104,"x_max":524,"o":"m 379 490 q 374 483 376 488 q 369 476 372 479 l 524 258 l 485 258 l 315 476 l 485 693 l 524 693 l 379 490 m 168 490 q 163 483 165 488 q 158 476 161 479 l 313 258 l 274 258 l 104 476 l 274 693 l 313 693 l 168 490 z "},"¬":{"ha":757,"x_min":92,"x_max":663,"o":"m 663 256 l 611 256 l 611 451 l 92 451 l 92 503 l 663 503 l 663 379 l 663 256 z "},"­":{"ha":456,"x_min":99,"x_max":349,"o":"m 349 451 l 99 451 l 99 503 l 349 503 l 349 451 z "},"®":{"ha":736,"x_min":107,"x_max":625,"o":"m 532 1014 q 454 1066 497 1049 q 366 1083 411 1083 q 278 1066 321 1083 q 200 1014 235 1049 q 149 936 165 979 q 132 848 132 893 q 149 760 132 803 q 200 682 165 717 q 278 631 235 647 q 366 614 321 614 q 454 631 411 614 q 532 682 497 647 q 584 760 567 717 q 601 848 601 803 q 584 936 601 893 q 532 1014 567 979 m 365 1107 q 467 1087 419 1107 q 549 1031 514 1067 q 605 949 585 996 q 625 849 625 903 q 605 747 625 794 q 549 665 585 700 q 467 609 514 629 q 365 589 419 589 q 265 609 311 589 q 183 665 218 629 q 127 747 147 700 q 107 849 107 794 q 127 949 107 903 q 183 1031 147 996 q 265 1087 218 1067 q 365 1107 311 1107 m 308 958 l 308 824 l 374 824 q 431 850 411 824 q 444 892 444 869 q 431 933 444 914 q 374 958 410 958 l 308 958 m 450 956 q 474 892 474 928 q 450 828 474 856 q 426 808 439 817 q 396 796 413 799 l 486 708 l 444 708 l 357 794 l 308 794 l 308 708 l 279 708 l 279 988 l 372 988 q 415 981 396 988 q 450 956 435 974 z "},"¯":{"ha":697,"x_min":86,"x_max":613,"o":"m 613 886 l 86 888 l 86 939 l 613 939 l 613 886 z "},"°":{"ha":493,"x_min":79,"x_max":400,"o":"m 335 1069 q 290 1100 314 1090 q 240 1110 265 1110 q 189 1099 215 1110 q 144 1069 163 1088 q 116 1028 126 1051 q 106 975 106 1004 q 116 922 106 946 q 144 881 126 899 q 189 850 161 864 q 215 843 201 846 q 240 840 228 840 q 290 850 265 840 q 335 879 315 860 q 375 975 375 919 q 365 1025 375 1000 q 335 1069 354 1050 m 240 1135 q 302 1122 274 1135 q 353 1088 331 1110 q 388 1038 375 1067 q 400 975 400 1008 q 388 913 400 942 q 353 861 375 883 q 303 826 332 839 q 240 814 274 814 q 178 826 207 814 q 126 861 149 839 q 92 913 104 883 q 79 975 79 942 q 92 1037 79 1008 q 126 1088 104 1065 q 178 1122 149 1110 q 240 1135 207 1135 z "},"±":{"ha":751,"x_min":97,"x_max":653,"o":"m 638 75 l 111 75 l 111 126 l 638 126 l 638 75 m 349 574 l 349 826 l 400 826 l 400 574 l 653 574 l 653 522 l 400 522 l 400 271 l 349 271 l 349 522 l 97 522 l 97 574 l 324 574 l 349 574 z "},"²":{"ha":460,"x_min":83,"x_max":371,"o":"m 83 472 q 197 624 142 549 q 311 774 253 699 l 313 774 q 328 840 338 806 q 299 886 322 868 q 244 910 275 904 q 183 906 214 915 q 128 868 151 897 l 90 888 q 146 935 113 918 q 215 953 179 951 q 224 954 218 954 q 285 942 258 954 q 331 911 313 931 q 360 868 350 892 q 371 819 371 844 q 351 758 371 786 l 125 456 l 357 456 l 357 415 l 83 415 l 83 472 z "},"³":{"ha":465,"x_min":76,"x_max":376,"o":"m 76 468 q 95 478 86 474 q 114 488 104 483 l 115 486 q 188 445 143 453 q 271 457 232 438 q 313 493 297 471 q 333 541 329 515 q 330 592 338 567 q 303 638 322 617 q 271 662 288 654 q 240 672 254 669 q 217 675 226 675 q 206 675 207 675 l 157 710 l 294 899 l 99 899 l 100 940 l 336 940 l 336 885 l 215 718 q 243 715 229 717 q 271 707 257 713 q 349 647 321 688 q 376 558 376 606 q 363 500 375 529 q 326 447 351 471 q 273 413 303 424 q 211 403 243 403 q 137 419 172 403 q 76 468 101 436 z "},"´":{"ha":347,"x_min":94,"x_max":249,"o":"m 132 831 l 94 831 l 181 940 l 249 940 l 132 831 z "},"µ":{"ha":688,"x_min":99,"x_max":583,"o":"m 150 678 l 150 260 l 150 256 q 161 181 150 218 q 194 115 172 144 q 247 68 215 86 q 319 50 278 50 q 403 65 364 50 q 470 108 442 81 q 515 171 499 135 q 532 249 532 207 l 532 678 l 583 678 l 583 0 l 571 0 l 524 100 q 440 27 490 56 q 319 -1 389 -1 q 219 26 257 -1 q 150 93 181 53 l 150 -315 l 99 -315 l 99 678 l 150 678 z "},"¶":{"ha":825,"x_min":71,"x_max":753,"o":"m 342 939 l 753 939 l 753 926 l 753 907 l 692 907 l 692 0 l 633 0 l 633 907 l 429 907 l 429 0 l 369 0 l 369 382 l 344 383 q 238 406 288 383 q 151 466 188 428 q 92 554 114 504 q 71 661 71 604 q 92 767 71 717 q 149 855 113 817 q 235 916 186 893 q 342 939 285 939 z "},"·":{"ha":303,"x_min":83,"x_max":210,"o":"m 83 478 q 101 522 83 504 q 146 542 118 542 q 190 522 171 542 q 210 478 210 506 q 190 433 210 453 q 146 415 172 415 q 101 433 119 415 q 83 478 83 451 z "},"¸":{"ha":379,"x_min":81,"x_max":286,"o":"m 161 1 l 182 1 l 181 -44 q 198 -47 188 -46 q 219 -54 208 -49 q 269 -99 251 -69 q 285 -160 286 -128 q 276 -203 285 -182 q 233 -257 263 -239 q 171 -274 203 -275 q 121 -262 144 -274 q 81 -228 97 -251 l 99 -219 q 147 -250 118 -243 q 201 -248 175 -257 q 246 -216 228 -239 q 264 -157 264 -193 q 237 -92 264 -119 q 171 -64 210 -64 l 161 -64 l 161 1 z "},"¹":{"ha":336,"x_min":96,"x_max":249,"o":"m 249 939 l 249 424 l 211 424 l 211 903 l 96 868 l 96 910 l 189 939 l 249 939 z "},"º":{"ha":533,"x_min":86,"x_max":443,"o":"m 265 951 q 367 911 322 951 q 433 790 414 868 q 441 742 439 771 q 443 681 443 713 q 440 619 443 649 q 433 571 438 590 q 410 510 425 539 q 375 460 396 482 q 327 425 354 438 q 265 413 300 413 q 203 426 231 413 q 154 460 175 439 q 119 511 133 482 q 97 572 106 540 q 88 624 90 594 q 86 682 86 653 q 87 712 86 697 q 89 739 88 726 q 110 833 92 788 q 163 911 128 879 q 211 940 185 931 q 265 951 238 950 m 346 872 q 265 910 310 910 q 183 872 219 910 l 183 872 q 136 781 151 840 q 129 736 132 763 q 126 681 126 710 q 129 626 126 653 q 136 582 132 600 q 153 534 143 557 q 180 494 164 511 q 217 465 196 476 q 264 454 238 454 q 312 465 290 454 q 349 494 333 476 q 376 534 365 511 q 393 582 388 557 q 401 655 400 611 q 400 731 403 699 q 385 808 397 771 q 346 872 372 844 z "},"»":{"ha":640,"x_min":107,"x_max":525,"o":"m 261 476 q 256 483 258 479 q 250 492 253 488 l 107 694 l 146 694 l 314 476 l 146 258 l 107 258 l 261 476 m 472 476 q 467 483 469 479 q 461 492 464 488 l 318 694 l 356 694 l 525 476 l 356 258 l 318 258 l 472 476 z "},"¼":{"ha":1079,"x_min":79,"x_max":1004,"o":"m 949 250 l 949 167 l 949 168 l 949 142 l 1004 142 l 1004 103 l 949 103 l 949 0 l 914 0 l 914 103 l 703 103 l 703 163 l 842 515 l 886 515 l 739 142 l 914 142 l 914 204 q 920 228 914 215 q 933 250 926 242 l 949 250 m 428 328 q 635 633 532 481 q 842 939 738 786 l 881 939 q 562 469 721 703 q 243 0 403 236 l 204 0 q 316 164 261 83 q 428 328 371 244 m 79 911 q 126 925 103 918 q 172 939 149 932 l 172 939 l 232 939 l 232 424 l 196 424 l 196 904 l 79 869 l 79 911 z "},"½":{"ha":1126,"x_min":67,"x_max":1043,"o":"m 410 329 q 617 634 514 482 q 824 939 719 786 l 863 939 q 544 469 703 701 q 224 0 385 236 l 186 0 q 298 165 243 83 q 410 329 353 246 m 67 910 q 113 924 90 917 q 160 939 136 932 l 219 939 l 219 424 l 182 424 l 182 903 l 67 868 l 67 910 m 756 57 q 870 208 814 133 q 983 360 926 283 l 985 360 q 1000 425 1008 392 q 971 471 994 453 q 917 494 947 489 q 854 491 886 500 q 799 453 822 482 l 761 472 q 817 519 785 503 q 888 539 850 536 q 953 528 924 540 q 1002 497 982 517 q 1033 453 1022 478 q 1043 403 1043 428 q 1024 343 1040 368 l 797 40 l 1029 40 l 1029 0 l 756 0 l 756 57 z "},"¾":{"ha":1153,"x_min":74,"x_max":1072,"o":"m 483 328 q 690 633 588 482 q 897 938 793 785 l 936 938 q 617 469 776 701 q 297 0 457 236 l 260 0 l 483 328 m 1017 250 l 1017 167 l 1017 167 l 1017 140 l 1072 140 l 1072 101 l 1017 101 l 1017 0 l 982 0 l 982 101 l 771 101 l 771 161 l 911 514 l 954 514 l 807 140 l 981 140 l 981 203 q 988 226 981 213 q 994 239 990 233 q 1001 250 997 244 l 1017 250 m 74 467 q 92 476 83 472 q 111 486 101 481 l 111 486 q 183 444 139 453 q 267 456 228 436 q 310 492 294 469 q 329 540 325 514 q 326 590 333 565 q 300 636 319 615 q 268 660 285 653 q 237 672 251 668 q 213 675 222 675 q 203 675 204 675 l 154 708 l 292 899 l 96 899 l 96 939 l 333 939 l 332 883 l 211 717 q 239 713 225 715 q 268 706 253 711 q 335 660 308 690 q 369 592 361 629 q 367 515 378 554 q 324 446 356 476 q 263 410 297 421 q 193 401 228 399 q 127 421 158 404 q 74 467 96 438 z "},"¿":{"ha":657,"x_min":88,"x_max":583,"o":"m 374 446 q 354 361 369 401 q 318 285 339 321 q 273 218 297 250 q 226 157 249 186 q 197 117 211 136 q 171 78 182 97 q 154 47 160 63 q 146 15 149 31 q 157 -79 136 -35 q 221 -147 176 -119 q 296 -175 253 -167 q 374 -178 336 -183 q 444 -158 411 -174 q 538 -75 503 -131 l 583 -97 q 469 -200 540 -165 q 342 -231 408 -231 q 317 -229 329 -231 q 292 -225 304 -228 q 249 -215 269 -221 q 210 -199 228 -208 q 111 -110 143 -167 q 88 -21 88 -69 q 88 -4 88 -12 q 90 14 89 4 q 99 45 93 29 q 113 78 104 61 q 155 140 129 111 q 208 197 181 169 q 256 247 232 222 q 299 302 279 272 q 334 367 319 332 q 354 446 349 403 l 374 446 m 365 721 q 403 706 388 721 q 418 668 418 690 q 403 631 418 646 q 365 615 388 615 q 328 631 343 615 q 313 668 313 646 q 328 706 313 690 q 365 721 343 721 z "},"À":{"ha":831,"x_min":28,"x_max":801,"o":"m 615 244 l 653 244 l 413 874 l 175 244 l 615 244 m 174 193 l 174 193 l 157 193 l 83 0 l 28 0 l 383 939 l 443 939 l 801 0 l 746 0 l 672 193 l 174 193 m 333 1203 q 376 1147 356 1175 q 418 1092 397 1119 l 382 1092 l 265 1203 l 333 1203 z "},"Á":{"ha":822,"x_min":25,"x_max":797,"o":"m 611 244 l 611 244 l 649 244 l 410 872 l 172 244 l 611 244 m 169 192 l 153 192 l 79 0 l 25 0 l 379 939 l 440 939 l 797 0 l 742 0 l 668 192 l 169 192 m 442 1092 l 404 1092 l 490 1201 l 558 1201 l 442 1092 z "},"Â":{"ha":822,"x_min":24,"x_max":797,"o":"m 171 243 l 611 243 l 611 243 l 649 243 l 408 872 l 171 243 m 169 192 l 151 192 l 79 0 l 24 0 l 378 938 l 439 938 l 797 0 l 742 0 l 668 192 l 169 192 m 457 1200 l 532 1090 l 492 1090 l 411 1185 l 329 1090 l 289 1090 l 365 1200 l 457 1200 z "},"Ã":{"ha":824,"x_min":25,"x_max":797,"o":"m 613 1182 q 612 1177 613 1179 q 611 1172 611 1175 l 611 1172 q 590 1121 607 1143 q 544 1089 574 1099 q 495 1086 519 1082 q 449 1101 471 1090 q 416 1120 433 1108 q 383 1140 399 1132 q 353 1159 369 1149 q 321 1174 336 1169 q 278 1173 297 1181 q 247 1146 258 1165 q 238 1127 240 1136 q 232 1107 235 1118 l 211 1107 q 213 1125 211 1119 q 225 1161 215 1143 q 257 1192 238 1181 q 299 1203 274 1203 q 332 1197 317 1203 q 365 1182 347 1193 l 401 1161 q 442 1135 421 1149 q 486 1115 463 1122 q 545 1117 519 1106 q 585 1161 571 1129 q 590 1182 588 1168 l 613 1182 m 669 193 l 171 193 l 153 193 l 81 0 l 25 0 q 202 469 114 236 q 379 939 290 703 l 440 939 l 797 0 l 743 0 l 669 193 m 613 244 l 613 244 l 650 244 l 410 874 l 172 244 l 613 244 z "},"Ä":{"ha":818,"x_min":21,"x_max":794,"o":"m 219 1156 q 235 1192 219 1179 q 272 1208 251 1208 q 310 1192 293 1208 q 325 1156 325 1179 q 310 1118 325 1133 q 272 1103 294 1103 q 235 1118 250 1103 q 219 1156 219 1133 m 489 1156 q 504 1192 489 1179 q 542 1208 521 1208 q 579 1192 563 1208 q 590 1176 586 1185 q 594 1156 594 1167 q 590 1135 594 1144 q 579 1118 586 1125 q 542 1103 564 1103 q 504 1118 519 1103 q 489 1156 489 1133 m 608 244 l 646 244 l 406 874 l 168 244 l 608 244 m 167 193 l 149 193 l 76 0 l 21 0 l 375 939 l 436 939 l 794 0 l 739 0 l 665 193 l 167 193 z "},"Å":{"ha":821,"x_min":21,"x_max":794,"o":"m 167 193 l 167 193 l 149 193 l 76 0 l 21 0 l 376 939 l 436 939 l 794 0 l 739 0 l 665 193 l 167 193 m 608 244 l 608 244 l 646 244 l 406 874 l 168 244 l 608 244 m 456 1203 q 401 1224 433 1225 l 400 1224 q 356 1201 374 1221 q 338 1156 338 1183 q 357 1107 338 1126 q 367 1099 363 1103 q 379 1092 372 1094 q 393 1088 386 1089 q 407 1086 400 1086 q 456 1107 435 1086 q 475 1160 478 1129 q 472 1172 474 1167 q 468 1183 471 1178 q 456 1203 464 1194 m 476 1086 q 407 1057 447 1057 l 408 1057 q 369 1065 386 1057 q 340 1085 353 1072 q 318 1118 324 1101 q 310 1156 310 1135 q 339 1224 310 1196 q 406 1253 368 1253 q 444 1244 426 1253 q 476 1224 461 1239 q 504 1154 504 1199 q 476 1086 504 1111 z "},"Æ":{"ha":1265,"x_min":31,"x_max":1207,"o":"m 646 192 l 215 192 q 154 96 185 143 q 92 0 124 49 l 31 0 l 635 939 l 1207 939 l 1194 888 l 697 888 l 697 503 l 1124 503 l 1124 451 l 697 450 l 697 51 l 1194 51 l 1207 0 l 646 0 l 646 192 m 646 860 q 488 615 553 715 q 381 449 424 515 q 314 344 339 382 q 276 286 289 307 q 258 258 263 265 q 249 243 253 250 l 646 243 l 646 860 z "},"Ç":{"ha":932,"x_min":54,"x_max":868,"o":"m 522 -86 l 522 -15 l 499 -14 q 331 26 414 -10 q 188 126 251 61 q 126 201 151 161 q 86 283 101 240 q 62 373 69 328 q 54 464 54 418 l 54 482 q 65 574 57 528 q 92 663 74 619 q 189 807 126 744 q 342 908 254 872 q 526 949 433 947 l 536 949 q 722 911 633 949 q 799 872 763 896 q 868 817 836 847 l 831 781 q 769 828 803 808 q 701 864 736 849 q 522 896 614 900 q 360 860 440 893 q 225 771 283 829 q 175 709 196 742 q 139 640 154 676 q 116 560 124 601 q 107 478 108 519 q 113 390 106 433 q 135 304 119 346 q 172 228 150 264 q 225 161 193 193 q 365 67 289 97 q 524 38 442 38 q 685 63 606 36 q 835 140 764 90 l 865 99 q 801 58 833 76 q 733 26 768 40 q 651 0 693 10 q 568 -14 610 -10 l 544 -15 l 544 -39 l 543 -57 l 543 -78 l 543 -99 q 578 -107 553 -99 q 624 -143 603 -115 q 647 -214 647 -175 q 639 -258 647 -236 q 614 -296 631 -278 q 578 -321 597 -312 q 533 -329 557 -329 q 471 -311 500 -329 q 442 -283 456 -301 l 461 -275 q 504 -304 479 -294 q 528 -308 517 -307 q 553 -306 540 -308 q 596 -285 578 -301 q 618 -254 610 -272 q 626 -212 626 -236 q 619 -176 626 -193 q 599 -146 611 -160 q 532 -119 572 -119 l 522 -119 l 522 -86 z "},"È":{"ha":708,"x_min":83,"x_max":644,"o":"m 339 1203 q 381 1148 360 1175 q 424 1093 403 1121 l 386 1093 l 269 1203 l 339 1203 m 135 503 l 561 503 l 561 451 l 135 451 l 135 53 l 632 53 l 644 0 l 83 0 l 83 939 l 643 940 l 631 888 l 135 888 l 135 529 l 135 503 z "},"É":{"ha":721,"x_min":86,"x_max":647,"o":"m 403 1093 l 365 1093 l 451 1203 l 519 1203 l 403 1093 m 138 529 q 138 516 138 522 q 139 503 138 510 l 565 503 l 565 451 l 139 451 l 139 51 l 635 51 l 647 0 l 86 0 l 86 939 l 647 939 l 633 888 l 138 888 l 138 529 z "},"Ê":{"ha":729,"x_min":99,"x_max":660,"o":"m 436 1201 l 511 1092 l 471 1092 l 390 1186 l 308 1092 l 268 1092 l 343 1201 l 436 1201 m 150 528 l 150 501 l 578 503 l 578 451 l 150 450 l 150 51 l 647 51 l 660 0 l 99 0 l 99 939 l 660 939 l 647 888 l 150 888 l 150 528 z "},"Ë":{"ha":729,"x_min":89,"x_max":650,"o":"m 461 1156 q 465 1176 461 1167 q 476 1193 469 1186 q 514 1208 492 1208 q 551 1193 539 1208 q 567 1156 567 1178 q 551 1118 567 1133 q 514 1103 539 1103 q 476 1118 492 1103 q 465 1135 469 1125 q 461 1156 461 1144 m 193 1156 q 208 1193 193 1178 q 246 1208 221 1208 q 283 1193 268 1208 q 294 1176 290 1186 q 299 1156 299 1167 q 294 1135 299 1144 q 283 1118 290 1125 q 246 1103 268 1103 q 208 1118 221 1103 q 193 1156 193 1133 m 140 503 l 567 503 l 567 451 l 140 451 l 140 51 l 638 53 l 650 0 l 89 0 l 89 939 l 649 939 l 636 888 l 140 888 l 140 529 l 140 503 z "},"Ì":{"ha":324,"x_min":28,"x_max":182,"o":"m 132 0 l 132 939 l 182 939 l 182 0 l 132 0 m 182 1093 l 144 1093 l 28 1203 l 96 1203 l 182 1093 z "},"Í":{"ha":338,"x_min":135,"x_max":306,"o":"m 135 0 l 135 938 l 186 938 l 186 0 l 135 0 m 190 1093 l 153 1093 l 238 1203 l 306 1203 l 190 1093 z "},"Î":{"ha":322,"x_min":38,"x_max":281,"o":"m 133 0 l 133 939 l 185 939 l 185 0 l 133 0 m 204 1201 l 281 1092 l 240 1092 l 160 1186 l 78 1092 l 38 1092 l 114 1201 l 204 1201 z "},"Ï":{"ha":336,"x_min":-21,"x_max":354,"o":"m 142 0 l 142 939 l 193 939 l 193 0 l 142 0 m 249 1156 q 264 1193 249 1178 q 281 1204 271 1200 q 301 1208 290 1208 q 322 1204 313 1208 q 339 1193 332 1200 q 354 1156 354 1178 q 339 1118 354 1131 q 301 1103 324 1103 q 264 1118 279 1103 q 249 1156 249 1131 m -21 1156 q -6 1193 -21 1178 q 11 1204 1 1200 q 32 1208 21 1208 q 69 1193 54 1208 q 85 1156 85 1178 q 69 1118 85 1131 q 32 1103 57 1103 q -6 1118 10 1103 q -21 1156 -21 1131 z "},"Ð":{"ha":969,"x_min":57,"x_max":900,"o":"m 157 457 l 57 457 l 57 496 l 157 496 l 157 939 l 431 939 q 613 902 528 939 q 763 801 699 865 q 863 652 826 738 q 900 469 900 567 q 863 287 900 372 q 763 138 826 201 q 613 37 699 74 q 431 0 528 0 l 157 0 l 157 457 m 472 457 l 233 457 l 208 457 l 208 51 l 431 51 q 553 70 494 51 q 663 123 613 89 q 753 205 714 157 q 817 311 793 253 q 846 517 860 414 q 777 702 832 619 q 632 836 722 785 q 431 888 542 888 l 208 888 l 208 496 l 472 496 l 472 457 z "},"Ñ":{"ha":865,"x_min":101,"x_max":768,"o":"m 633 1183 q 626 1148 633 1164 q 614 1125 618 1132 q 567 1092 596 1099 q 517 1089 542 1085 q 469 1104 493 1093 q 438 1122 454 1111 q 406 1143 421 1133 q 374 1162 390 1151 q 343 1176 358 1172 q 268 1149 294 1190 q 260 1129 263 1138 q 254 1110 257 1121 l 233 1110 q 235 1128 233 1122 q 247 1163 238 1146 q 279 1194 260 1183 q 321 1204 300 1206 q 353 1200 339 1204 q 371 1193 363 1197 q 388 1185 379 1189 l 422 1163 q 463 1138 442 1150 q 507 1118 485 1125 q 566 1119 540 1107 q 606 1164 592 1132 q 609 1173 608 1168 q 613 1183 610 1178 l 633 1183 m 101 0 l 101 940 l 164 940 l 717 78 l 717 940 l 768 940 l 768 0 l 706 0 l 151 863 l 151 0 l 101 0 z "},"Ò":{"ha":1099,"x_min":68,"x_max":1028,"o":"m 472 1203 q 515 1148 494 1175 q 558 1093 536 1121 l 521 1093 l 404 1203 l 472 1203 m 857 774 q 769 840 815 815 q 680 878 722 865 q 601 895 638 892 q 544 899 565 899 q 460 890 503 899 q 378 865 418 881 q 239 774 300 833 q 187 708 208 743 q 150 636 165 674 q 119 469 119 558 q 150 303 119 382 q 187 232 165 267 q 239 167 208 197 q 383 73 303 104 q 549 42 464 42 q 714 73 633 42 q 857 167 794 104 q 907 228 886 196 q 943 297 928 261 q 976 457 974 372 q 971 545 978 501 q 949 631 964 589 q 857 774 918 710 m 549 950 q 743 911 650 950 l 743 910 q 904 799 835 872 q 958 729 935 767 q 996 650 981 692 q 1020 563 1013 608 q 1028 469 1028 518 q 989 272 1028 360 q 876 114 947 178 q 806 61 844 85 q 725 22 768 38 q 549 -10 640 -10 q 354 29 447 -10 q 267 76 308 49 q 193 140 226 104 q 100 289 131 207 q 68 469 68 374 q 104 660 68 571 q 207 814 139 746 q 278 871 239 846 q 363 914 318 896 q 549 950 451 950 z "},"Ó":{"ha":1092,"x_min":64,"x_max":1025,"o":"m 596 1093 l 558 1093 l 644 1203 l 713 1203 l 596 1093 m 853 772 q 775 834 817 810 q 692 872 733 858 q 610 892 650 886 q 539 897 571 897 q 374 864 453 897 q 235 772 294 832 q 146 636 176 714 q 115 469 115 558 q 146 303 115 381 q 235 167 176 225 q 378 72 297 103 q 544 40 460 40 q 710 72 629 40 q 853 167 790 104 q 903 227 882 194 q 939 296 924 260 q 972 456 969 372 q 944 631 976 543 q 907 705 929 669 q 853 772 885 740 m 544 950 q 739 910 647 950 l 739 910 q 900 799 831 872 q 993 650 961 736 q 1025 469 1025 565 q 985 271 1025 364 q 872 113 947 181 q 721 21 808 56 q 544 -11 638 -11 q 350 28 443 -11 q 263 75 304 47 q 189 139 222 103 q 96 288 131 201 q 64 469 64 375 q 100 658 64 571 q 203 813 135 747 q 360 914 271 879 q 544 950 447 950 z "},"Ô":{"ha":1090,"x_min":64,"x_max":1025,"o":"m 590 1201 l 665 1092 l 625 1092 l 544 1186 l 463 1092 l 422 1092 l 497 1201 l 590 1201 m 853 772 q 785 827 821 804 q 710 867 750 850 l 710 867 q 626 891 669 883 q 539 899 582 899 q 456 889 497 897 q 374 864 414 881 q 235 774 296 832 q 183 708 204 743 q 146 636 161 674 q 115 469 115 558 q 146 303 115 382 q 183 232 161 267 q 235 167 204 197 q 378 73 297 104 q 544 42 460 42 q 710 73 629 42 q 853 167 790 104 q 903 228 882 196 q 939 297 924 261 q 972 457 969 372 q 967 545 974 501 q 944 631 960 589 q 853 772 914 711 m 544 950 q 739 910 646 950 l 739 910 q 826 863 785 890 q 900 799 867 835 q 993 650 958 736 q 1025 469 1025 565 q 985 271 1025 364 q 872 113 946 179 q 721 21 808 56 q 544 -11 636 -11 q 350 28 443 -11 q 263 75 304 47 q 189 139 222 103 q 96 289 126 206 q 64 469 64 374 q 100 658 64 571 q 203 813 136 749 q 274 870 235 844 q 358 914 314 896 q 544 950 447 950 z "},"Õ":{"ha":1086,"x_min":61,"x_max":1022,"o":"m 851 772 q 783 828 819 804 q 708 867 747 851 l 707 867 q 623 891 667 883 q 536 899 579 899 q 453 889 494 897 q 371 864 411 881 q 298 826 333 849 q 232 772 263 803 q 143 636 174 714 q 113 469 113 558 q 143 303 113 381 q 232 167 172 229 q 376 72 296 104 q 542 40 457 40 q 707 72 626 40 q 851 167 788 104 q 938 296 908 226 q 960 375 953 335 q 969 456 968 415 q 965 544 972 500 q 942 631 958 589 q 905 705 926 669 q 851 772 883 740 m 542 950 q 736 911 643 950 l 736 910 q 824 863 783 890 q 897 799 865 835 q 990 650 960 732 q 1022 469 1022 565 q 983 272 1022 365 q 869 114 943 179 q 799 60 838 83 q 719 22 761 38 q 633 -2 678 7 q 542 -11 588 -11 q 347 29 440 -11 q 188 140 254 69 q 94 289 126 203 q 61 469 61 372 q 97 660 61 571 q 200 814 132 746 q 357 914 269 879 q 542 950 444 950 m 742 1182 q 740 1172 742 1176 l 740 1174 q 719 1122 736 1143 q 674 1090 703 1100 q 624 1088 649 1083 q 578 1103 600 1092 q 545 1122 563 1111 q 513 1142 528 1132 q 482 1160 499 1150 q 450 1175 465 1171 q 376 1147 403 1189 q 363 1108 367 1131 l 342 1108 q 343 1126 342 1121 q 356 1163 344 1143 q 388 1193 371 1183 q 429 1204 404 1204 q 463 1199 447 1204 q 479 1192 471 1196 q 496 1183 488 1189 l 531 1161 q 572 1136 550 1149 q 617 1117 593 1124 q 676 1118 650 1106 q 714 1163 701 1131 q 721 1182 719 1172 l 742 1182 z "},"Ö":{"ha":1081,"x_min":60,"x_max":1021,"o":"m 622 1154 q 638 1193 622 1178 q 654 1204 644 1200 q 675 1208 664 1208 q 696 1204 686 1208 q 713 1193 706 1200 q 728 1154 728 1178 q 713 1117 728 1132 q 696 1106 706 1110 q 675 1101 686 1101 q 654 1106 664 1101 q 638 1117 644 1110 q 622 1154 622 1132 m 353 1154 q 368 1193 353 1178 q 385 1204 375 1200 q 406 1208 394 1208 q 426 1204 417 1208 q 443 1193 436 1200 q 458 1154 458 1178 q 443 1117 458 1132 q 426 1106 436 1110 q 406 1101 417 1101 q 385 1106 394 1101 q 368 1117 375 1110 q 353 1154 353 1132 m 849 772 q 774 833 814 808 q 692 872 733 857 q 610 892 650 886 q 535 897 571 897 q 452 888 494 896 q 369 864 410 879 q 296 825 331 847 q 231 772 261 803 q 178 707 200 742 q 142 636 157 672 q 111 469 111 558 q 142 303 111 381 q 178 231 157 265 q 231 165 200 196 q 375 72 294 103 q 540 40 456 40 q 706 72 625 40 q 849 165 786 103 q 899 227 878 194 q 935 296 919 260 q 968 456 965 372 q 940 629 972 544 q 903 705 925 669 q 849 772 881 740 m 540 950 q 735 910 643 950 l 735 911 q 822 864 781 892 q 896 800 863 836 q 988 651 956 736 q 1021 469 1021 568 q 981 272 1021 364 q 868 114 939 178 q 798 61 836 85 q 717 22 760 38 q 540 -10 632 -10 q 346 29 439 -10 q 259 76 300 49 q 185 140 218 104 q 92 289 124 203 q 60 469 60 374 q 96 660 60 571 q 139 742 113 704 q 199 814 165 781 q 354 914 264 878 q 540 950 443 950 z "},"×":{"ha":618,"x_min":89,"x_max":518,"o":"m 267 476 l 89 654 l 125 690 l 304 513 l 482 690 l 518 654 l 340 476 l 518 299 l 481 261 l 303 439 l 125 261 l 89 299 l 249 458 l 267 476 z "},"Ø":{"ha":1085,"x_min":58,"x_max":1018,"o":"m 861 760 q 624 522 722 621 q 458 357 525 424 q 353 251 392 290 q 292 190 314 211 q 261 160 269 168 q 249 147 253 151 l 272 129 q 413 59 338 81 q 568 42 489 38 q 717 78 646 47 q 847 167 789 108 q 897 228 876 196 q 933 297 918 261 q 967 456 964 372 q 963 533 968 494 q 947 607 958 571 q 919 674 936 642 q 879 736 903 707 l 861 760 m 219 175 q 515 472 368 325 q 811 768 663 619 l 811 768 l 832 789 l 808 807 q 747 847 779 831 q 679 876 714 864 q 606 893 643 888 q 533 899 569 899 q 367 865 447 896 q 294 826 329 849 q 229 774 260 803 q 177 708 199 743 q 140 636 156 674 q 110 469 110 558 q 132 324 110 392 q 201 197 156 253 l 219 175 m 538 950 q 710 920 632 950 q 850 840 788 890 l 868 826 l 950 908 l 979 879 l 897 797 l 913 779 q 992 638 965 717 q 1011 557 1004 599 q 1018 471 1018 515 q 979 272 1018 367 q 931 188 960 228 q 867 114 903 147 q 796 62 835 85 q 715 22 757 39 q 538 -10 631 -10 q 454 -3 494 -10 q 375 17 414 4 q 299 51 335 32 q 231 97 263 71 l 213 111 l 126 25 l 97 53 l 183 139 l 168 157 q 86 300 113 224 q 65 383 71 340 q 58 469 58 425 q 93 660 58 574 q 196 814 128 746 q 353 914 265 879 q 538 950 440 950 z "},"Ù":{"ha":851,"x_min":92,"x_max":760,"o":"m 369 1203 q 413 1148 392 1175 q 456 1093 435 1121 l 418 1093 l 301 1203 l 369 1203 m 760 939 l 760 319 l 760 319 q 734 190 760 250 q 663 85 708 129 q 558 13 618 39 q 426 -14 497 -14 q 295 13 356 -14 q 190 83 235 39 q 118 190 144 129 q 92 319 92 250 l 92 939 l 143 939 l 144 319 q 166 210 144 261 q 226 121 188 158 q 320 58 268 79 q 426 38 372 38 q 532 58 481 38 q 625 121 583 79 q 688 212 665 160 q 708 319 710 264 l 708 939 l 760 939 z "},"Ú":{"ha":854,"x_min":93,"x_max":761,"o":"m 761 939 l 761 319 l 761 318 q 735 189 761 249 q 664 85 708 129 q 558 13 618 39 q 426 -14 497 -14 q 297 13 357 -14 q 192 83 236 39 q 119 190 146 129 q 93 319 93 250 l 93 939 l 144 939 l 144 319 q 167 210 144 261 q 228 121 189 158 q 322 58 269 79 q 428 38 374 38 q 533 58 482 38 q 626 121 585 79 q 688 212 665 160 q 710 319 710 264 l 708 939 l 761 939 m 451 1093 l 414 1093 l 500 1203 l 568 1203 l 451 1093 z "},"Û":{"ha":857,"x_min":96,"x_max":763,"o":"m 763 939 l 763 319 q 737 190 763 250 q 665 83 711 129 q 560 13 621 39 q 429 -14 500 -14 q 299 12 360 -14 q 193 83 239 38 q 122 190 149 129 q 96 319 96 250 l 96 939 l 147 939 l 147 319 q 169 210 147 261 q 231 119 192 158 q 324 58 272 78 q 429 38 375 38 q 535 58 483 38 q 629 119 588 78 q 690 212 668 160 q 711 319 713 264 l 711 939 l 763 939 m 475 1201 l 550 1092 l 511 1092 l 429 1186 l 347 1092 l 308 1092 l 383 1201 l 475 1201 z "},"Ü":{"ha":854,"x_min":93,"x_max":761,"o":"m 761 939 l 761 319 q 735 190 761 250 q 664 83 708 129 q 558 13 618 39 q 426 -14 497 -14 q 297 12 357 -14 q 192 83 236 38 q 119 189 146 128 q 93 319 93 250 l 93 939 l 144 939 l 144 319 q 167 210 144 261 q 228 119 189 158 q 322 58 269 78 q 428 38 374 38 q 533 58 482 38 q 626 119 585 78 q 689 212 667 160 q 710 319 711 264 l 710 939 l 761 939 m 508 1154 q 513 1175 508 1165 q 524 1192 517 1185 q 561 1208 540 1208 q 599 1192 585 1208 q 615 1154 615 1178 q 599 1117 615 1133 q 582 1106 592 1110 q 561 1101 572 1101 q 540 1106 550 1101 q 524 1117 531 1110 q 513 1133 517 1124 q 508 1154 508 1143 m 240 1154 q 256 1192 240 1179 q 293 1208 272 1208 q 331 1192 314 1208 q 346 1154 346 1179 q 331 1117 346 1132 q 314 1106 324 1110 q 293 1101 304 1101 q 272 1106 282 1101 q 256 1117 263 1110 q 240 1154 240 1132 z "},"Ý":{"ha":781,"x_min":39,"x_max":736,"o":"m 406 1093 l 369 1093 l 454 1203 l 522 1203 l 406 1093 m 365 483 q 376 463 371 472 q 388 444 382 454 l 676 939 l 736 939 l 413 385 l 413 0 l 363 0 l 363 386 l 39 939 l 99 939 l 365 483 z "},"Þ":{"ha":796,"x_min":92,"x_max":729,"o":"m 143 204 l 411 204 l 415 204 q 517 225 469 204 q 600 282 564 246 q 656 366 636 318 q 678 467 676 414 l 678 469 q 658 574 678 526 q 601 657 638 621 q 517 714 565 693 q 413 736 468 735 l 143 736 l 143 204 m 413 153 l 169 153 l 169 151 l 143 151 l 143 0 l 92 0 l 92 939 l 143 939 l 143 788 l 413 788 q 536 763 479 788 q 636 694 593 738 q 705 594 681 651 q 729 469 729 536 l 729 465 q 703 345 728 401 q 636 246 679 289 q 538 178 593 203 q 417 153 482 153 l 413 153 z "},"ß":{"ha":786,"x_min":86,"x_max":713,"o":"m 86 0 l 86 740 l 86 740 q 110 840 86 800 q 172 906 133 881 q 260 940 211 931 q 361 950 310 950 l 374 950 q 507 917 451 949 q 585 838 563 885 q 592 736 608 790 q 511 633 576 682 q 450 578 468 601 q 438 532 432 556 q 469 488 443 508 q 532 444 496 467 q 606 391 568 421 q 674 319 644 361 q 713 194 713 261 q 694 108 713 150 q 635 39 675 67 q 558 0 599 13 q 475 -12 518 -12 q 389 0 431 -12 l 389 54 q 477 39 432 39 q 564 57 522 39 q 625 100 601 74 q 657 158 649 126 q 658 227 665 190 q 625 299 650 264 q 583 344 607 324 q 533 381 560 364 q 481 415 507 399 q 435 449 456 432 q 385 521 394 481 q 406 604 375 561 q 441 644 421 628 q 481 675 461 660 q 517 708 500 690 q 542 750 533 725 q 541 812 554 783 q 500 860 528 840 q 444 887 476 878 q 378 898 413 896 q 310 897 344 900 q 249 885 276 893 q 169 837 201 869 q 138 744 138 804 l 138 0 l 86 0 z "},"à":{"ha":799,"x_min":71,"x_max":699,"o":"m 644 317 q 505 339 585 328 q 343 347 425 350 l 343 347 q 201 317 263 344 q 125 225 139 290 q 128 153 117 186 q 168 96 140 121 q 239 56 199 69 q 319 39 279 42 q 435 52 381 35 q 532 103 489 69 q 603 185 575 136 q 642 293 632 233 l 644 317 m 699 0 l 686 0 q 665 47 678 19 q 628 125 651 75 l 603 97 q 474 11 549 39 q 343 -12 411 -12 q 221 7 282 -12 q 113 80 154 31 q 71 196 71 129 q 75 236 71 215 q 122 326 86 292 q 209 376 158 360 q 319 397 260 393 q 439 397 379 401 q 553 385 499 393 q 647 369 608 376 l 647 400 q 632 496 647 450 q 579 575 617 542 q 481 628 536 613 q 367 640 425 643 q 255 615 310 636 q 158 557 200 593 l 121 593 q 232 662 169 638 q 361 692 294 686 q 498 676 432 696 q 617 610 564 657 q 680 516 661 569 q 699 403 699 463 l 699 0 m 418 831 l 381 831 l 264 940 l 333 940 l 418 831 z "},"á":{"ha":790,"x_min":64,"x_max":692,"o":"m 639 317 q 499 339 579 328 q 338 347 419 350 l 338 347 q 260 339 297 346 q 194 317 224 332 q 146 281 165 303 q 119 225 126 258 q 123 153 111 186 q 163 96 135 121 q 233 56 193 69 q 314 39 274 42 q 429 53 375 36 q 526 103 483 69 q 598 185 569 136 q 636 293 626 233 l 639 317 m 692 0 l 679 0 q 660 42 676 6 q 622 125 643 79 l 596 97 q 536 47 568 68 q 468 10 504 25 q 336 -14 404 -14 q 215 7 272 -14 q 106 80 149 31 q 64 196 64 129 q 68 235 64 214 q 115 325 79 292 q 202 376 151 358 q 313 397 253 393 q 433 397 374 400 q 547 385 493 393 q 640 369 601 376 l 640 400 q 626 496 640 450 q 574 574 611 542 q 474 627 531 611 q 360 640 418 643 q 248 615 303 636 q 151 557 193 593 l 115 592 q 226 661 164 636 q 356 690 289 686 q 492 676 426 696 q 610 610 558 657 q 673 515 654 569 q 692 403 692 461 l 692 0 m 410 831 l 372 831 l 458 940 l 526 940 l 410 831 z "},"â":{"ha":778,"x_min":67,"x_max":694,"o":"m 640 317 q 501 339 581 328 q 339 347 421 350 l 339 347 q 197 317 258 344 q 121 225 135 290 q 125 153 113 186 q 165 96 138 121 q 235 57 194 71 q 315 40 275 43 q 431 52 376 35 q 528 103 485 69 q 599 185 571 138 q 638 293 628 233 l 640 317 m 694 0 l 683 0 l 625 125 l 599 97 q 469 11 544 39 q 338 -12 407 -12 q 218 8 275 -12 q 109 81 151 32 q 67 196 67 129 q 71 236 67 215 q 118 326 82 292 q 205 376 154 360 q 315 397 256 393 q 435 397 375 401 q 549 385 494 393 q 643 369 604 376 l 643 400 q 628 496 643 450 q 575 575 613 542 q 476 628 532 613 q 363 640 421 643 q 251 615 306 636 q 154 557 196 593 l 117 593 q 228 661 165 636 q 357 692 290 686 q 494 676 428 696 q 613 610 560 657 q 676 516 657 569 q 694 403 694 463 l 694 0 m 454 940 l 531 831 l 490 831 l 410 925 l 328 831 l 288 831 l 363 940 l 454 940 z "},"ã":{"ha":785,"x_min":68,"x_max":697,"o":"m 619 921 q 619 916 619 918 q 618 911 618 914 l 618 910 q 598 858 614 881 q 551 828 582 836 q 503 825 528 821 q 456 840 479 829 q 420 860 439 849 q 386 883 401 872 q 358 900 372 890 q 329 913 344 910 q 254 885 281 926 q 246 867 249 875 q 240 847 243 858 l 219 847 q 221 864 219 858 q 233 900 222 881 q 265 931 250 924 q 307 942 282 942 q 339 936 326 942 q 374 921 354 932 l 408 900 q 449 874 428 888 q 493 854 471 861 q 552 856 526 844 q 592 900 578 868 q 595 910 594 906 q 599 921 596 915 l 619 921 m 619 322 q 492 341 568 332 q 342 347 417 350 l 342 347 q 199 317 261 344 q 124 225 138 290 q 121 206 121 211 q 131 144 118 171 q 168 96 144 117 q 217 65 189 76 q 276 46 246 53 q 297 42 288 43 q 318 40 307 40 q 433 52 379 35 q 531 103 488 69 q 602 185 574 136 q 640 293 631 233 l 643 317 l 619 322 m 697 0 l 685 0 q 678 14 683 3 q 665 42 674 25 q 647 81 657 60 q 626 125 638 103 l 600 97 q 540 47 572 68 q 472 11 508 26 q 342 -12 408 -12 q 328 -12 335 -12 q 314 -11 321 -12 q 265 -4 289 -8 q 219 8 240 0 q 178 26 197 15 q 143 50 158 38 q 79 135 99 85 q 68 197 68 165 q 72 236 68 218 q 145 347 88 310 q 279 393 203 383 q 451 397 361 406 q 615 376 540 389 q 630 373 622 374 q 644 371 638 372 l 644 401 q 641 453 644 429 q 629 500 638 478 q 578 575 613 544 q 476 629 533 614 q 357 640 418 644 q 249 614 301 635 q 157 557 197 593 l 119 593 q 231 663 168 638 q 360 692 293 688 q 497 676 431 696 q 615 611 563 657 q 675 522 656 572 q 697 404 697 469 l 697 0 z "},"ä":{"ha":782,"x_min":63,"x_max":692,"o":"m 639 318 q 498 340 578 329 q 336 347 418 351 l 336 347 q 260 338 296 346 q 194 317 224 331 q 145 281 165 303 q 118 225 125 258 q 122 153 110 186 q 163 96 135 119 q 232 56 192 69 q 313 39 272 42 q 428 51 374 35 q 525 103 482 68 q 635 293 615 174 l 639 318 m 679 0 l 622 125 l 596 97 q 467 11 542 42 q 335 -12 404 -12 q 214 8 271 -12 q 105 81 147 32 q 64 196 63 129 q 68 236 64 215 q 115 326 79 292 q 202 377 151 360 q 313 398 253 394 q 432 397 372 401 q 546 385 492 393 q 639 369 600 376 l 639 401 q 624 496 639 450 q 572 575 610 542 q 473 628 529 613 q 360 640 417 643 q 248 615 303 636 q 151 557 193 593 l 114 593 q 225 661 163 636 q 354 690 288 686 q 491 676 425 696 q 610 610 557 657 q 673 516 654 569 q 692 404 692 463 l 692 0 l 679 0 m 488 886 q 503 924 488 908 q 540 939 518 939 q 578 924 563 939 q 593 886 593 908 q 578 849 593 864 q 540 833 563 833 q 503 849 518 833 q 488 886 488 864 m 218 886 q 233 924 218 908 q 271 939 249 939 q 308 924 293 939 q 324 886 324 908 q 308 849 324 864 q 271 833 293 833 q 233 849 249 833 q 218 886 218 864 z "},"å":{"ha":783,"x_min":67,"x_max":696,"o":"m 481 342 q 333 347 390 351 q 239 332 276 343 q 163 294 194 319 q 122 225 131 268 q 126 153 114 186 q 167 96 139 119 q 236 56 196 69 q 317 39 276 42 q 432 52 378 35 q 529 103 486 69 q 601 185 572 136 q 639 292 629 233 l 642 317 q 567 331 608 324 q 481 342 525 338 m 696 0 l 683 0 l 625 125 l 600 97 q 471 11 543 38 q 406 -7 439 -1 q 339 -12 374 -12 q 218 7 276 -12 q 109 80 151 31 q 67 196 67 129 q 71 236 67 215 q 119 326 83 292 q 206 376 156 360 q 316 397 256 393 q 436 397 376 401 q 550 385 496 393 q 643 369 604 376 l 643 400 q 628 496 643 450 q 576 574 614 542 q 477 627 533 611 q 363 640 421 643 q 251 615 306 636 q 156 557 197 593 l 118 593 q 229 661 167 636 q 358 690 292 686 q 495 676 429 696 q 614 610 561 657 q 677 516 658 569 q 696 403 696 463 l 696 0 m 461 969 q 407 989 438 990 l 407 989 q 383 983 394 988 q 363 967 371 978 q 344 921 344 949 q 364 874 344 890 q 374 865 368 868 q 386 858 379 861 q 413 853 397 853 q 461 874 439 853 q 481 926 483 896 q 478 939 479 933 q 475 950 478 944 q 469 960 472 956 q 461 969 465 965 m 482 851 q 413 824 454 824 l 414 824 q 346 850 372 824 q 324 883 329 867 q 315 921 315 900 q 344 989 315 961 q 411 1018 374 1018 q 450 1011 429 1018 q 482 989 469 1001 q 502 959 494 976 q 510 919 510 942 q 482 851 510 876 z "},"æ":{"ha":1340,"x_min":44,"x_max":1288,"o":"m 428 344 q 280 345 344 351 q 171 315 215 339 q 124 279 143 300 q 99 226 106 258 q 143 96 85 149 q 213 56 172 69 q 294 40 254 43 q 409 53 356 36 q 507 103 463 69 q 588 199 563 147 q 619 318 613 251 q 530 333 579 325 q 428 344 481 340 m 964 639 q 812 599 881 640 q 704 486 743 557 q 679 426 685 451 q 671 364 674 400 l 1235 365 l 1231 394 q 1146 571 1215 503 q 964 639 1076 639 m 1193 46 q 1088 3 1147 19 q 972 -12 1029 -14 q 775 41 860 -12 q 647 199 690 94 q 560 81 611 133 q 428 4 510 29 q 317 -12 376 -12 q 254 -8 285 -12 q 196 7 224 -4 q 87 80 129 31 q 44 196 44 129 q 49 236 44 215 q 105 333 61 299 q 208 383 149 368 q 338 399 268 399 q 471 392 407 399 q 553 381 513 388 q 622 369 593 375 q 619 429 621 401 q 610 488 618 457 q 588 534 601 513 q 554 574 575 556 q 455 627 511 611 q 342 640 399 643 q 230 615 285 636 q 133 557 175 593 l 96 593 q 207 661 144 636 q 336 690 269 686 q 349 692 343 692 q 363 692 356 692 q 485 672 426 692 q 590 610 544 653 q 629 565 615 588 q 658 508 643 542 q 679 542 669 526 q 704 575 689 557 q 823 661 754 631 q 967 692 892 692 q 1101 664 1042 692 q 1203 588 1161 636 q 1266 476 1244 540 q 1288 339 1288 413 l 1288 314 l 672 313 q 675 267 672 285 q 689 225 678 250 q 799 88 722 138 q 972 39 875 39 q 1071 53 1021 39 q 1163 92 1121 68 l 1193 46 z "},"ç":{"ha":714,"x_min":75,"x_max":647,"o":"m 408 -118 l 399 -118 l 399 -117 l 399 -10 l 376 -7 q 267 25 315 1 q 181 85 218 49 q 128 149 150 114 q 93 225 107 185 q 80 282 85 253 q 75 340 75 311 q 76 365 75 353 q 78 390 76 378 q 110 494 86 443 q 174 589 133 546 q 182 596 178 592 q 190 604 186 600 q 297 670 239 649 q 414 692 354 692 l 419 692 q 538 667 481 690 q 643 600 596 644 l 606 565 q 517 620 565 601 q 418 640 469 639 q 317 623 367 642 q 225 567 267 604 q 219 560 222 564 q 211 553 215 556 q 149 456 169 508 q 126 347 128 403 q 149 225 126 279 q 218 119 171 167 q 305 63 254 83 q 419 40 356 42 q 476 44 447 39 q 532 58 504 49 q 577 76 556 65 q 619 100 599 88 l 647 56 q 606 32 628 43 q 561 13 585 21 q 444 -11 506 -8 l 419 -12 l 418 -97 q 455 -107 438 -100 q 488 -129 472 -114 q 518 -182 510 -149 q 518 -243 526 -211 q 490 -293 511 -272 q 454 -318 474 -310 q 410 -328 435 -328 q 389 -326 396 -328 q 329 -296 353 -319 q 317 -282 321 -287 l 336 -274 q 381 -303 354 -294 q 428 -304 407 -310 q 471 -283 453 -300 q 493 -253 485 -271 q 501 -211 501 -235 q 474 -146 501 -171 q 408 -118 449 -118 z "},"è":{"ha":810,"x_min":69,"x_max":740,"o":"m 350 942 q 392 886 371 914 q 436 831 414 858 l 397 831 l 282 942 l 350 942 m 121 363 q 390 363 256 363 q 660 364 525 364 l 660 364 l 689 364 l 685 393 q 657 489 679 443 q 603 567 638 532 q 518 619 569 600 q 467 633 494 629 q 411 639 440 638 q 306 619 357 639 q 257 595 281 608 q 214 563 233 582 q 157 488 178 531 q 138 442 146 465 q 126 393 131 419 l 121 363 m 647 44 q 542 1 601 18 q 426 -14 483 -15 q 284 13 349 -14 q 171 88 219 39 q 97 199 124 135 q 69 338 69 263 q 77 418 69 381 q 100 490 85 456 q 186 607 129 558 q 237 642 210 626 q 293 669 264 658 q 414 690 351 690 q 542 667 482 690 q 642 601 599 644 q 715 486 690 553 q 740 338 740 418 l 740 313 l 121 311 l 126 281 q 163 181 136 226 q 229 104 189 136 q 319 55 269 72 q 426 38 368 38 q 481 42 454 38 q 535 56 508 47 q 578 71 558 63 q 617 90 599 79 l 647 44 z "},"é":{"ha":811,"x_min":69,"x_max":740,"o":"m 444 831 l 407 831 l 493 940 l 561 940 l 444 831 m 119 363 q 389 363 254 363 q 658 364 524 363 l 658 364 l 688 364 l 683 393 q 656 489 678 443 q 601 567 635 533 q 517 619 568 600 q 411 638 471 638 q 304 618 356 638 q 213 563 253 599 q 156 488 178 532 q 125 393 133 440 l 119 363 m 647 44 q 542 1 601 18 q 425 -14 482 -15 q 284 13 349 -14 q 171 88 219 40 q 96 199 122 135 q 69 338 69 263 q 99 490 69 422 q 185 606 128 560 q 292 668 232 647 q 414 690 349 690 q 540 667 481 690 q 640 601 601 643 q 714 486 689 553 q 740 338 740 414 l 740 313 l 119 311 l 125 281 q 228 104 146 171 q 317 55 268 72 q 425 38 367 38 q 480 42 453 38 q 535 56 507 47 q 577 71 557 63 q 617 90 597 79 l 647 44 z "},"ê":{"ha":817,"x_min":74,"x_max":744,"o":"m 458 940 l 533 831 l 493 831 l 413 925 q 371 878 392 901 q 331 831 350 854 l 290 831 l 365 940 l 458 940 m 124 363 q 352 363 258 363 q 508 364 446 364 q 606 364 571 364 q 660 364 642 364 q 684 364 678 364 q 693 364 690 364 l 689 393 q 678 443 685 419 q 661 489 672 467 q 607 567 642 532 q 521 619 571 601 q 470 633 497 629 q 415 639 443 638 q 308 619 363 639 q 260 595 283 608 q 217 563 238 582 q 160 488 183 533 q 129 393 140 446 l 124 363 m 651 44 q 619 28 640 39 q 568 8 597 18 q 504 -8 539 -1 q 431 -14 469 -14 q 288 13 353 -14 q 175 88 224 39 q 100 199 126 135 q 74 338 74 263 q 103 490 74 422 q 189 606 135 560 q 296 669 235 646 q 418 690 354 690 q 544 667 486 690 q 646 601 604 643 q 718 486 693 551 q 744 338 744 414 l 744 313 l 124 311 l 129 281 q 232 104 150 171 q 322 55 272 72 q 431 38 372 38 q 485 42 458 38 q 539 54 511 47 q 621 90 582 68 l 651 44 z "},"ë":{"ha":818,"x_min":76,"x_max":747,"o":"m 499 885 q 514 922 499 910 q 551 939 531 939 q 589 922 572 939 q 604 885 604 910 q 589 847 604 863 q 551 832 574 832 q 514 847 529 832 q 499 885 499 863 m 229 885 q 244 922 229 910 q 282 939 261 939 q 319 922 303 939 q 336 885 336 908 q 319 847 336 864 q 282 832 304 832 q 244 847 260 832 q 229 885 229 863 m 128 364 q 397 364 263 364 q 667 365 531 364 l 667 364 l 696 364 l 692 394 q 681 444 688 421 q 664 490 675 468 q 610 567 642 536 q 525 621 575 601 q 418 639 476 639 q 364 635 390 639 q 313 619 338 631 q 263 596 286 610 q 219 564 240 582 q 163 488 186 532 q 132 394 143 447 l 128 364 m 654 46 q 593 17 625 29 q 532 -1 561 6 q 477 -10 503 -7 q 433 -12 451 -12 q 291 14 356 -12 q 178 89 226 40 q 103 200 129 136 q 76 339 76 264 q 84 419 76 382 q 106 492 92 457 q 142 554 121 525 q 192 607 164 583 q 299 669 239 649 q 421 692 356 692 q 547 668 489 690 q 649 603 607 644 q 721 488 696 553 q 747 339 747 421 l 747 314 l 128 313 l 132 282 q 235 106 153 172 q 325 56 275 74 q 433 39 375 39 q 488 44 461 39 q 542 56 515 49 q 624 92 585 69 l 654 46 z "},"ì":{"ha":318,"x_min":28,"x_max":182,"o":"m 179 0 l 129 0 l 128 332 q 126 417 126 376 q 131 499 126 457 q 147 583 136 540 q 176 676 157 626 l 179 676 l 179 0 m 182 831 l 144 831 l 28 940 l 96 940 l 182 831 z "},"í":{"ha":318,"x_min":126,"x_max":303,"o":"m 179 0 l 129 0 l 128 332 q 126 367 126 350 q 126 399 126 383 q 135 532 126 467 q 176 678 144 597 l 179 678 l 179 0 m 303 942 q 246 886 275 914 q 188 831 217 858 l 149 831 l 235 942 l 303 942 z "},"î":{"ha":325,"x_min":36,"x_max":279,"o":"m 185 676 l 185 0 l 133 0 l 133 332 q 132 417 132 376 q 137 499 132 457 q 152 583 142 540 q 182 676 163 626 l 185 676 m 204 939 l 279 829 l 239 829 l 158 924 l 76 829 l 36 829 l 113 939 l 204 939 z "},"ï":{"ha":317,"x_min":-29,"x_max":346,"o":"m 185 678 l 185 0 l 133 0 l 132 333 q 131 418 131 378 q 135 500 131 458 q 151 585 140 542 q 181 678 161 628 l 185 678 m 240 886 q 256 924 240 908 q 293 939 271 939 q 331 924 315 939 q 346 886 346 908 q 331 849 346 864 q 293 833 315 833 q 256 849 271 833 q 240 886 240 864 m -29 886 q -14 924 -29 908 q 24 939 1 939 q 61 924 46 939 q 76 886 76 908 q 61 849 76 864 q 24 833 46 833 q -14 849 1 833 q -29 886 -29 864 z "},"ð":{"ha":811,"x_min":65,"x_max":746,"o":"m 278 763 q 319 795 299 779 q 360 828 339 811 l 360 828 l 379 843 l 306 938 l 331 957 l 404 863 l 506 942 l 522 921 l 421 840 l 671 524 q 726 422 708 475 q 746 313 746 368 q 719 188 746 249 q 646 82 694 128 q 535 11 599 36 q 473 -7 506 0 q 406 -14 440 -14 q 339 -7 371 -14 q 276 11 307 0 q 167 82 211 38 q 92 188 117 131 q 65 313 65 249 q 92 438 65 376 q 167 543 119 500 q 276 614 211 588 q 406 639 338 639 q 491 628 451 639 q 572 597 531 617 l 396 822 l 294 742 l 278 763 m 406 39 q 517 60 465 39 q 610 119 568 81 q 672 208 649 156 q 694 313 694 260 q 672 418 694 365 q 610 507 649 471 q 517 567 568 546 q 463 582 490 576 q 406 588 435 588 q 349 582 376 588 q 296 567 321 576 q 201 507 243 546 q 140 418 161 469 q 118 313 118 369 q 124 258 118 285 q 140 208 129 232 q 201 119 161 157 q 296 60 243 81 q 406 39 346 39 z "},"ñ":{"ha":774,"x_min":97,"x_max":668,"o":"m 588 921 q 586 911 588 914 l 588 911 q 567 859 583 881 q 521 828 550 838 q 472 825 496 821 q 424 840 447 829 q 388 860 407 849 q 354 883 369 872 q 326 899 340 890 q 297 913 313 908 q 222 885 249 926 q 214 866 217 875 q 208 847 211 857 l 188 847 q 189 864 188 858 q 201 900 190 881 q 233 931 217 921 q 253 940 243 938 q 275 942 264 942 q 308 936 293 942 q 342 921 324 932 l 376 899 q 417 874 396 888 q 461 854 439 861 q 522 856 496 844 q 560 900 547 868 q 567 921 565 914 l 588 921 m 617 392 q 604 492 617 446 q 588 534 597 514 q 563 571 578 554 q 494 622 536 604 q 453 634 475 629 q 408 639 432 639 q 322 624 361 639 q 250 586 282 610 q 187 524 213 560 q 150 449 161 488 l 149 446 l 149 0 l 97 0 l 97 676 l 107 676 l 157 567 l 183 593 q 231 633 204 615 q 288 664 257 650 q 408 690 349 690 q 526 663 474 690 q 614 586 579 636 q 638 548 628 568 q 654 504 647 528 q 665 455 661 481 q 668 401 668 429 l 668 0 l 617 0 l 617 392 z "},"ò":{"ha":807,"x_min":63,"x_max":742,"o":"m 426 832 l 389 832 l 272 942 l 342 942 l 426 832 m 690 342 q 669 459 689 404 q 606 558 650 514 q 522 614 568 594 q 427 638 476 633 q 328 630 378 642 q 238 589 279 618 q 176 533 203 565 q 135 458 150 500 q 114 341 115 406 q 132 222 113 276 q 215 103 158 149 q 341 44 272 58 q 481 49 410 31 q 606 118 551 67 q 672 221 653 163 q 690 342 692 279 m 393 690 q 478 682 435 692 q 563 651 522 672 q 639 598 604 631 q 699 521 674 565 q 731 435 721 481 q 742 339 742 389 q 689 141 742 229 q 533 13 636 53 q 399 -14 465 -14 q 272 10 333 -14 q 163 79 211 33 q 87 197 111 128 q 63 338 63 265 q 88 478 63 414 q 139 567 107 528 q 211 633 171 606 q 298 674 251 660 q 393 690 344 689 z "},"ó":{"ha":814,"x_min":67,"x_max":746,"o":"m 424 831 l 386 831 l 472 940 l 540 940 l 424 831 m 617 550 q 610 558 615 553 l 610 558 q 515 619 568 599 q 407 639 463 639 q 299 619 351 639 q 204 558 246 599 l 197 551 q 139 458 158 511 q 124 401 128 431 q 118 343 119 372 q 122 281 118 311 q 138 222 126 251 q 161 171 147 194 q 196 125 175 147 q 200 122 199 122 q 203 118 201 121 q 298 58 244 78 q 407 38 351 38 q 515 58 463 38 q 610 118 568 78 q 617 125 614 121 q 676 221 657 168 q 691 280 688 250 q 694 342 694 310 q 690 401 694 371 q 675 458 686 431 q 651 507 665 483 q 617 550 638 531 m 407 690 q 540 663 476 690 l 540 663 q 600 631 572 650 q 651 589 628 613 q 721 478 699 540 q 746 338 746 414 q 719 192 746 257 q 643 79 694 128 q 594 40 621 57 q 536 11 567 24 q 472 -8 506 -1 q 406 -14 439 -14 l 403 -14 q 275 10 338 -14 q 167 78 214 33 q 92 192 118 125 q 67 338 67 258 q 92 478 67 414 q 163 589 115 542 q 214 631 186 613 q 274 663 242 650 q 407 690 336 690 z "},"ô":{"ha":813,"x_min":67,"x_max":747,"o":"m 453 940 l 528 831 l 488 831 l 407 925 l 325 831 l 285 831 l 361 940 l 453 940 m 617 551 q 614 555 615 554 q 610 558 613 556 l 610 558 q 515 619 568 599 q 407 639 463 639 q 299 619 351 639 q 204 558 246 599 l 197 551 q 139 458 158 511 q 124 402 128 431 q 118 343 119 374 q 122 282 118 313 q 136 222 126 251 q 196 125 156 167 l 203 118 q 298 58 244 78 q 407 39 351 39 q 515 58 463 39 q 610 118 568 78 l 618 125 q 676 222 657 168 q 690 281 686 250 q 694 342 694 311 q 675 458 694 406 q 651 507 665 483 q 617 551 638 531 m 407 690 q 540 664 475 690 l 542 664 q 601 631 574 650 q 653 589 629 613 q 722 479 699 540 q 747 339 747 415 q 719 193 747 261 q 644 79 693 126 q 594 41 621 58 q 538 13 568 24 q 407 -14 476 -11 l 403 -14 q 276 10 336 -14 q 167 79 213 35 q 93 193 118 128 q 67 339 67 258 q 92 478 67 414 q 163 589 117 542 q 274 664 208 636 q 338 683 306 676 q 407 690 371 690 z "},"õ":{"ha":804,"x_min":63,"x_max":742,"o":"m 603 921 q 583 863 600 888 q 535 828 567 838 q 485 825 510 821 q 439 840 461 829 q 403 860 422 849 q 368 883 385 872 q 341 901 356 892 q 311 913 326 910 q 238 885 264 926 q 228 867 231 875 q 224 847 226 858 l 203 847 q 204 864 203 858 q 208 882 206 874 q 217 900 210 890 q 249 932 229 921 q 289 942 267 942 q 322 936 307 942 q 357 921 338 932 l 392 899 q 433 874 411 888 q 476 854 454 861 q 535 856 510 844 q 575 900 561 868 q 578 910 578 906 q 582 921 579 915 l 603 921 m 613 550 q 606 558 611 553 l 606 558 q 511 618 564 599 q 403 638 458 638 q 294 618 347 638 q 200 558 242 599 q 193 550 199 556 q 135 458 154 508 q 119 401 124 431 q 114 343 115 372 q 118 281 114 311 q 132 222 122 250 q 192 125 151 168 l 199 118 q 294 58 240 78 q 403 38 347 38 q 511 58 458 38 q 606 118 564 78 q 613 125 610 121 q 672 221 653 168 q 687 280 683 250 q 690 342 690 310 q 686 401 690 371 q 671 458 682 431 q 647 507 661 483 q 613 550 633 531 m 403 690 q 536 663 472 690 l 538 663 q 597 631 569 650 q 649 589 625 613 q 718 478 696 540 q 736 410 731 446 q 742 338 742 375 q 735 262 742 299 q 715 193 729 225 q 640 79 689 126 q 532 11 596 36 q 469 -7 501 0 q 403 -14 436 -14 l 397 -14 q 272 10 332 -14 q 163 78 210 32 q 89 192 114 126 q 63 338 63 257 q 88 478 63 414 q 158 589 113 542 q 269 664 207 638 q 334 683 301 676 q 403 690 367 690 z "},"ö":{"ha":801,"x_min":63,"x_max":743,"o":"m 485 886 q 500 924 485 908 q 538 939 515 939 q 575 924 560 939 q 590 886 590 908 q 575 849 590 864 q 538 833 560 833 q 500 849 515 833 q 485 886 485 864 m 215 886 q 231 924 215 908 q 268 939 246 939 q 306 924 290 939 q 321 886 321 908 q 306 849 321 864 q 268 833 290 833 q 231 849 246 833 q 219 865 224 856 q 215 886 215 875 m 614 551 l 607 558 l 606 558 q 511 619 564 599 q 403 639 458 639 q 296 619 349 639 q 201 558 243 599 q 193 551 199 557 q 136 458 156 511 q 115 343 115 404 q 133 222 113 279 q 192 126 153 167 l 200 118 q 294 58 242 78 q 403 39 347 39 q 512 58 458 39 q 607 118 565 78 q 614 126 608 121 q 649 172 635 147 q 672 222 663 196 q 688 281 683 250 q 690 342 692 311 q 686 401 690 372 q 671 458 682 431 q 647 507 661 483 q 614 551 633 531 m 403 690 q 538 664 472 690 q 597 631 569 650 q 649 589 625 613 q 718 479 694 540 q 743 339 743 415 q 736 263 743 300 q 717 193 729 226 q 684 132 703 161 q 640 79 665 103 q 533 13 594 36 q 403 -14 472 -11 l 399 -14 q 272 10 335 -14 q 164 79 207 36 q 89 193 115 126 q 69 263 76 226 q 63 339 63 299 q 89 478 65 415 q 158 589 113 543 q 210 631 182 613 q 269 664 238 650 q 335 683 301 676 q 403 690 368 690 z "},"÷":{"ha":717,"x_min":93,"x_max":619,"o":"m 357 572 q 319 588 335 572 q 304 625 304 603 q 319 663 304 647 q 336 674 326 669 q 357 678 346 678 q 394 663 379 678 q 406 646 401 656 q 410 625 410 636 q 394 588 410 603 q 357 572 379 572 m 357 0 q 319 15 335 0 q 304 53 304 31 q 319 90 304 75 q 357 106 335 106 q 394 90 379 106 q 406 74 401 83 q 410 53 410 64 q 394 15 410 31 q 357 0 379 0 m 619 313 l 93 314 l 93 365 l 619 365 l 619 313 z "},"ø":{"ha":810,"x_min":65,"x_max":744,"o":"m 650 501 q 641 515 646 508 q 632 529 636 522 l 632 531 l 213 110 l 238 92 q 331 48 281 61 q 431 40 381 35 q 527 66 481 44 q 611 126 574 88 q 672 224 653 171 q 688 281 683 251 q 693 342 693 311 q 682 426 693 382 q 650 501 672 464 m 160 175 q 169 161 165 168 q 178 147 174 154 q 243 213 201 171 q 339 308 285 254 q 459 428 393 363 q 597 568 525 494 l 572 585 q 479 629 529 617 q 379 638 429 642 q 283 612 329 633 q 199 551 236 590 q 139 457 157 508 q 123 401 128 429 q 117 343 118 372 q 119 299 117 321 q 128 256 121 276 q 160 175 138 215 m 406 690 q 463 685 435 690 q 517 672 490 681 l 517 672 q 569 649 544 663 q 615 618 593 635 l 633 603 l 699 668 l 735 632 l 668 565 l 681 549 q 728 450 714 500 q 744 339 744 399 q 717 196 744 264 q 638 81 689 128 q 532 13 593 36 q 404 -14 474 -11 l 401 -14 q 347 -9 374 -14 q 293 4 319 -4 q 240 27 265 14 q 193 58 215 40 l 175 72 l 111 8 l 75 44 l 140 110 l 128 128 q 101 174 113 150 q 81 226 89 199 q 65 339 65 283 q 92 476 65 414 q 164 589 117 542 q 274 664 208 636 q 338 683 306 676 q 406 690 369 690 z "},"ù":{"ha":758,"x_min":92,"x_max":664,"o":"m 339 942 q 382 887 361 914 q 425 832 403 860 l 388 832 l 271 942 l 339 942 m 144 286 q 165 174 144 217 q 199 115 186 132 q 267 59 228 78 q 349 39 307 40 q 434 51 392 38 q 513 92 476 65 q 574 155 549 119 q 611 228 599 190 l 613 232 l 611 678 l 664 678 l 664 0 l 654 0 l 603 111 q 547 55 575 79 q 476 13 518 31 q 361 -12 425 -12 q 255 9 303 -12 q 172 68 207 31 q 114 161 135 108 q 92 276 93 214 l 92 678 l 143 678 l 144 286 z "},"ú":{"ha":771,"x_min":97,"x_max":668,"o":"m 149 678 l 149 286 l 149 285 q 162 194 149 238 q 203 115 175 150 q 272 59 232 78 q 354 39 311 40 q 440 51 397 38 q 517 92 482 65 q 578 155 553 119 q 615 228 604 190 l 617 232 l 617 678 l 668 678 l 668 0 l 658 0 l 607 111 q 551 55 579 79 q 482 13 524 31 q 367 -12 428 -12 q 260 9 308 -12 q 176 68 213 31 q 119 162 140 108 q 97 276 99 215 l 97 678 l 149 678 m 408 831 l 371 831 l 456 942 l 524 942 l 408 831 z "},"û":{"ha":764,"x_min":93,"x_max":665,"o":"m 146 286 l 146 285 q 159 194 146 238 q 200 115 172 150 q 269 59 229 78 q 351 39 308 40 q 435 51 393 38 q 514 92 478 65 q 575 155 550 119 q 613 228 600 190 l 614 232 l 614 678 l 665 678 l 665 0 l 656 0 l 604 111 q 549 55 576 79 q 479 13 521 31 q 363 -12 425 -12 q 256 9 304 -12 q 174 68 208 31 q 115 161 136 108 q 93 275 94 214 l 93 678 l 144 678 q 145 482 144 579 q 146 286 146 385 m 425 939 l 501 829 l 461 829 l 379 924 l 297 829 l 258 829 l 333 939 l 425 939 z "},"ü":{"ha":760,"x_min":93,"x_max":665,"o":"m 144 286 l 144 285 q 158 194 144 238 q 199 115 172 150 q 269 59 229 78 q 351 39 308 40 q 435 51 393 38 q 514 92 478 65 q 575 155 550 119 q 613 228 600 190 l 614 232 l 613 678 l 664 678 l 665 0 l 654 0 l 604 111 q 548 55 576 79 q 478 13 519 31 q 363 -12 426 -12 q 256 9 304 -12 q 174 68 208 31 q 115 161 136 108 q 93 275 94 214 l 93 678 l 144 678 l 144 286 m 461 885 q 476 922 461 907 q 514 939 493 939 q 551 922 535 939 q 567 885 567 907 q 551 847 567 863 q 514 832 536 832 q 476 847 492 832 q 461 885 461 863 m 192 885 q 207 922 192 907 q 244 939 224 939 q 282 922 265 939 q 297 885 297 907 q 282 847 297 863 q 244 832 267 832 q 207 847 222 832 q 192 885 192 863 z "},"ý":{"ha":682,"x_min":40,"x_max":638,"o":"m 96 678 q 203 403 150 539 q 311 128 257 267 l 311 128 l 335 68 l 360 126 q 416 263 389 196 q 470 398 443 331 q 525 535 497 465 q 582 678 553 604 l 638 678 q 477 281 558 481 q 313 -117 396 82 q 213 -255 279 -197 q 57 -319 147 -312 l 57 -268 q 185 -212 132 -261 q 265 -97 238 -162 l 306 0 l 40 678 l 96 678 m 471 942 q 413 886 442 914 q 354 831 383 858 l 317 831 l 403 942 l 471 942 z "},"þ":{"ha":842,"x_min":89,"x_max":771,"o":"m 226 126 q 286 80 256 97 q 344 53 317 63 q 397 42 372 44 q 435 39 421 39 q 490 47 463 40 q 544 64 518 53 q 636 126 597 86 q 699 229 679 172 q 715 290 710 258 q 718 353 719 321 q 711 408 717 381 q 696 461 706 436 q 642 551 676 513 q 558 614 607 592 q 509 631 535 625 q 456 639 483 638 q 331 619 393 643 q 226 553 269 597 q 163 453 183 508 q 142 340 142 399 q 163 226 142 282 q 226 126 183 171 m 89 993 l 140 993 l 140 993 l 140 529 q 210 609 174 575 q 308 667 247 643 q 458 690 383 697 q 520 681 490 689 q 578 661 550 674 q 676 590 635 633 q 744 479 722 540 q 769 343 769 417 q 746 204 771 272 q 674 90 719 140 q 565 17 625 42 q 438 -12 506 -10 q 300 14 369 -14 q 208 72 247 38 q 142 151 169 107 l 142 -315 l 90 -315 l 89 993 z "},"ÿ":{"ha":685,"x_min":43,"x_max":639,"o":"m 425 885 q 440 922 425 907 q 478 938 456 938 q 515 922 500 938 q 532 885 532 906 q 515 847 532 864 q 478 832 500 832 q 440 847 456 832 q 425 885 425 863 m 156 885 q 172 922 156 906 q 210 938 188 938 q 247 922 232 938 q 263 885 263 907 q 247 847 263 863 q 210 832 232 832 q 172 847 188 832 q 156 885 156 864 m 99 676 q 206 401 153 538 q 314 126 260 265 l 338 68 l 363 126 q 450 341 407 232 q 538 563 493 450 q 558 610 547 585 q 583 676 568 636 l 639 676 q 565 490 603 583 q 486 297 526 396 q 402 90 444 193 q 315 -118 360 -12 q 267 -202 296 -162 q 199 -269 238 -242 q 133 -304 168 -290 q 60 -321 99 -318 l 60 -268 q 172 -225 122 -262 q 228 -168 204 -201 q 268 -97 253 -135 l 308 0 l 43 676 l 99 676 z "},"Ą":{"ha":836,"x_min":33,"x_max":818,"o":"m 449 936 q 628 468 539 700 q 807 0 717 236 l 806 0 q 769 -24 792 -10 q 726 -56 747 -39 q 685 -90 704 -72 q 657 -126 665 -108 q 642 -174 644 -151 q 647 -215 639 -197 q 673 -242 654 -232 q 722 -253 692 -253 q 770 -246 750 -253 q 818 -231 790 -239 l 817 -285 q 763 -300 789 -294 q 708 -306 736 -306 q 623 -279 660 -306 q 583 -206 586 -253 q 601 -146 582 -175 q 650 -90 619 -117 q 719 -41 681 -64 q 793 0 757 -18 l 751 0 l 678 192 l 163 192 l 89 0 l 33 0 l 389 935 l 449 936 m 194 278 l 182 243 l 658 243 l 419 871 l 194 278 z "},"ą":{"ha":783,"x_min":63,"x_max":704,"o":"m 638 317 q 497 339 576 328 q 336 347 417 350 q 259 339 296 346 q 193 317 222 332 q 144 281 164 303 q 117 225 124 258 q 122 153 110 186 q 161 96 133 119 q 231 56 190 69 q 313 39 272 42 q 426 53 372 36 q 525 103 481 69 q 597 185 568 136 q 633 293 625 233 l 638 317 m 468 -206 q 485 -146 467 -175 q 535 -90 504 -117 q 603 -41 565 -64 q 679 0 642 -18 l 678 0 l 619 125 l 594 97 q 465 11 540 39 q 340 -13 407 -12 q 213 7 274 -14 q 105 80 147 31 q 63 196 63 129 q 67 236 63 215 q 114 326 78 292 q 201 376 150 360 q 311 397 251 393 q 431 397 371 401 q 545 385 490 393 q 639 369 600 376 l 639 400 q 624 496 639 450 q 571 574 610 542 q 472 627 528 611 q 359 640 417 643 q 247 615 301 636 q 150 557 192 593 l 113 593 q 224 661 161 636 q 353 690 286 686 q 367 692 360 692 q 382 692 375 692 q 503 672 444 692 q 608 610 563 651 q 672 516 653 569 q 690 403 690 463 l 690 0 l 690 0 q 653 -26 675 -11 q 610 -57 632 -40 q 570 -92 589 -74 q 543 -126 551 -110 q 528 -174 531 -151 q 533 -215 525 -197 q 559 -242 540 -232 q 608 -253 578 -253 q 656 -246 636 -253 q 704 -231 676 -239 l 703 -285 q 649 -300 675 -294 q 594 -306 622 -306 q 508 -279 546 -306 q 468 -206 471 -253 z "},"Ć":{"ha":943,"x_min":65,"x_max":879,"o":"m 560 1092 l 522 1092 l 607 1203 l 676 1203 l 560 1092 m 538 -12 l 528 -12 l 528 -12 q 353 23 438 -11 q 197 128 268 57 q 138 202 163 163 q 96 286 113 242 q 73 374 81 329 q 65 465 65 419 l 65 483 q 76 576 68 531 q 103 664 85 621 q 200 808 138 746 q 353 911 268 876 q 444 940 397 931 q 536 950 490 949 q 733 913 639 953 q 810 873 774 896 q 879 818 847 850 l 842 782 q 711 865 781 839 q 533 899 628 901 q 452 888 493 896 q 371 863 411 879 q 300 824 335 847 q 236 772 265 801 q 186 710 207 743 q 150 642 165 678 q 127 562 135 603 q 118 481 119 521 q 124 392 117 436 q 146 306 131 347 q 183 231 161 267 q 236 164 204 196 q 377 69 301 99 q 535 39 453 40 q 696 66 617 39 q 844 142 775 93 l 876 101 q 713 17 800 46 q 538 -12 626 -12 z "},"ć":{"ha":718,"x_min":76,"x_max":649,"o":"m 550 942 q 492 887 521 914 q 433 832 463 860 l 396 832 l 482 942 l 550 942 m 649 56 q 543 6 600 24 l 543 6 q 431 -11 489 -11 l 406 -11 q 276 19 338 -7 q 175 90 219 46 q 101 208 125 143 q 76 339 76 272 q 101 472 76 407 q 175 588 125 536 l 192 604 q 299 671 240 649 q 421 692 358 693 q 540 667 482 690 q 644 600 597 644 q 626 582 635 590 q 607 565 617 574 q 518 620 567 601 q 419 640 469 639 q 318 622 368 640 q 226 565 268 604 q 219 559 224 563 q 213 553 215 556 q 149 453 169 508 q 128 340 128 399 q 149 226 128 282 q 213 126 169 171 q 306 64 254 85 q 421 40 361 40 q 477 44 449 39 q 533 58 506 49 q 578 76 557 65 q 621 100 600 88 l 649 56 z "},"Č":{"ha":946,"x_min":71,"x_max":885,"o":"m 510 1092 l 435 1201 l 475 1201 l 556 1107 l 638 1201 l 678 1201 l 601 1092 l 510 1092 m 542 -12 l 532 -12 l 532 -12 q 358 23 443 -11 q 203 128 274 57 q 143 202 168 163 q 101 285 118 242 q 71 465 71 371 l 71 483 q 81 575 72 529 q 108 664 90 621 q 204 808 140 744 q 276 868 238 843 q 357 911 315 893 q 449 940 401 931 q 542 950 496 949 q 739 913 643 953 q 885 818 821 878 l 847 782 q 717 867 788 838 q 539 899 629 901 q 457 888 499 896 q 376 863 415 879 q 240 772 301 832 q 156 642 182 713 q 122 481 125 565 q 128 392 121 436 q 150 306 135 347 q 187 231 165 267 q 240 164 208 196 q 382 70 306 100 q 539 39 458 40 q 700 66 621 39 q 850 142 779 93 l 881 101 q 717 17 804 46 q 542 -12 631 -12 z "},"č":{"ha":726,"x_min":76,"x_max":649,"o":"m 378 829 l 301 939 l 342 939 l 424 846 l 506 939 l 544 939 l 469 829 l 378 829 m 649 56 q 599 27 625 40 q 543 6 572 14 l 543 4 q 488 -8 515 -3 q 431 -12 460 -12 q 418 -12 424 -12 q 406 -11 413 -12 q 276 19 338 -7 q 224 49 249 32 q 175 90 199 67 q 101 206 125 142 q 76 339 76 271 q 101 470 76 406 q 175 588 125 535 q 183 595 179 592 q 192 603 188 599 q 299 669 240 647 q 421 690 358 692 q 540 666 482 689 q 644 599 597 643 l 606 564 q 517 619 565 600 q 419 639 469 638 q 317 622 367 640 q 226 565 267 603 q 219 558 222 563 q 213 551 215 554 q 149 452 169 507 q 128 339 128 397 q 149 226 128 281 q 213 126 169 171 q 306 63 250 85 q 362 46 333 51 q 421 39 390 40 q 533 57 474 38 q 621 100 582 75 l 649 56 z "},"Ď":{"ha":904,"x_min":92,"x_max":836,"o":"m 340 1092 l 264 1201 l 304 1201 l 385 1107 l 467 1201 l 507 1201 l 432 1092 l 340 1092 m 92 0 l 92 939 l 367 939 q 531 910 454 939 q 674 828 613 881 q 794 668 750 763 q 825 573 814 624 q 836 469 836 522 q 804 290 836 375 q 765 213 788 250 q 710 144 742 176 q 554 38 644 75 q 463 10 510 19 q 367 0 415 0 l 92 0 m 143 51 l 367 51 q 460 62 415 51 q 547 92 506 72 q 627 140 590 111 q 693 203 664 168 q 733 261 717 231 q 761 325 750 292 q 785 469 785 396 q 775 561 785 517 q 747 646 765 606 q 642 788 710 729 q 514 861 585 836 q 441 881 478 874 q 367 888 404 888 l 143 888 l 143 51 z "},"ď":{"ha":925,"x_min":82,"x_max":942,"o":"m 942 1096 q 897 957 918 1025 q 853 819 875 889 l 847 819 l 868 1096 l 942 1096 m 660 506 q 603 571 638 544 q 526 615 569 597 q 441 636 485 632 q 356 632 397 640 q 276 603 314 624 q 207 550 238 583 q 150 453 165 507 q 133 342 135 400 q 174 179 132 254 q 297 65 215 104 q 397 38 346 42 q 494 47 447 33 q 583 88 542 60 q 653 158 624 117 q 663 174 657 163 q 691 253 682 210 q 699 342 700 297 q 689 429 699 386 q 660 506 679 472 m 422 -14 q 323 1 372 -14 q 232 44 274 15 q 157 113 190 72 q 104 207 124 154 q 88 273 93 239 q 82 342 82 307 q 103 478 82 415 q 170 588 125 542 q 276 661 215 633 q 405 690 339 689 q 535 667 471 690 q 624 620 589 647 q 690 556 658 593 l 689 992 l 740 992 l 742 -1 l 729 -1 q 704 52 717 26 q 679 106 692 78 l 653 81 l 653 81 q 544 9 603 32 q 422 -14 485 -14 z "},"Đ":{"ha":981,"x_min":67,"x_max":910,"o":"m 167 456 l 67 456 l 67 496 l 167 496 l 167 939 l 440 939 q 623 902 538 939 q 772 801 708 865 q 873 652 836 738 q 910 469 910 567 q 873 287 910 372 q 772 138 836 201 q 623 37 708 74 q 440 0 538 0 l 167 0 l 167 456 m 482 456 l 243 456 l 218 456 l 218 51 l 440 51 q 563 70 504 51 q 672 122 622 89 q 762 203 722 156 q 826 310 801 251 q 856 516 869 413 q 787 702 842 619 q 642 836 732 785 q 440 888 551 888 l 218 888 l 218 496 l 482 496 l 482 456 z "},"Ę":{"ha":732,"x_min":101,"x_max":663,"o":"m 153 888 l 153 501 l 581 503 l 581 451 l 153 450 l 153 51 l 650 51 l 663 0 l 624 0 q 588 -24 610 -10 q 544 -56 567 -39 q 503 -90 522 -72 q 476 -126 485 -108 q 461 -174 464 -151 q 467 -215 458 -197 q 494 -242 475 -232 q 543 -253 513 -253 q 591 -246 571 -253 q 639 -231 611 -239 l 636 -285 q 583 -300 610 -294 q 529 -306 556 -306 q 443 -279 481 -306 q 403 -206 406 -253 q 420 -146 401 -175 q 469 -90 439 -117 q 538 -41 500 -64 q 614 0 576 -18 l 101 0 l 101 939 l 663 939 l 649 888 l 153 888 z "},"ę":{"ha":831,"x_min":78,"x_max":749,"o":"m 128 364 l 667 364 l 697 364 l 693 393 q 682 444 689 421 q 665 490 675 468 q 611 567 643 536 q 525 621 576 601 q 419 639 474 639 q 313 619 367 639 q 221 563 264 601 q 164 488 188 533 q 133 393 144 449 l 128 364 m 282 -206 q 297 -149 281 -176 q 340 -98 313 -122 q 401 -51 367 -74 q 471 -11 436 -29 q 449 -14 461 -14 q 435 -14 438 -14 q 292 14 357 -12 q 179 88 228 40 q 104 199 131 135 q 78 339 78 264 q 107 490 78 424 q 144 554 122 525 q 193 607 165 583 q 244 642 217 626 q 300 669 271 658 q 360 686 329 681 q 422 690 390 692 q 549 667 490 690 q 649 603 608 643 q 722 486 696 556 q 749 339 749 421 l 749 313 l 129 313 l 135 282 q 170 182 144 226 q 236 106 196 138 q 435 38 317 40 q 490 42 463 38 q 543 56 517 47 q 625 92 586 69 l 656 44 q 613 24 636 33 q 564 7 589 14 q 490 -10 528 -3 q 454 -34 474 -21 q 415 -62 435 -47 q 380 -94 396 -78 q 356 -126 364 -111 q 346 -215 331 -176 q 422 -254 361 -254 q 469 -247 449 -253 q 517 -232 489 -240 l 515 -286 q 461 -301 488 -294 q 408 -307 435 -307 q 322 -280 360 -307 q 282 -206 285 -253 z "},"Ě":{"ha":738,"x_min":106,"x_max":665,"o":"m 340 1092 l 265 1201 l 304 1201 l 386 1107 l 468 1201 l 508 1201 l 432 1092 l 340 1092 m 157 528 l 157 503 l 583 503 l 583 451 l 157 451 l 157 51 l 654 51 l 665 0 l 106 0 l 106 939 l 665 939 l 653 888 l 157 888 l 157 528 z "},"ě":{"ha":829,"x_min":78,"x_max":749,"o":"m 382 831 l 306 940 l 346 940 l 426 846 l 508 940 l 549 940 l 474 831 l 382 831 m 129 364 q 399 365 264 365 q 668 365 533 365 l 668 365 l 697 365 l 693 394 q 683 444 689 421 q 665 490 676 468 q 611 568 646 533 q 526 621 575 601 q 419 640 475 640 q 314 621 365 640 q 221 564 260 600 q 164 489 188 535 q 135 394 143 444 l 129 364 m 656 46 q 551 3 610 19 q 435 -12 492 -12 q 293 15 358 -12 q 181 89 228 42 q 105 200 132 136 q 78 339 78 264 q 108 492 78 422 q 194 608 138 560 q 245 644 218 628 q 301 671 272 660 q 422 692 360 692 q 550 668 490 692 q 650 603 607 646 q 724 488 699 554 q 749 339 749 421 l 749 314 l 129 313 l 135 282 q 171 183 144 228 q 238 106 197 138 q 327 56 278 74 q 435 39 376 39 q 490 44 463 39 q 543 57 517 49 q 625 92 588 69 l 656 46 z "},"Ħ":{"ha":979,"x_min":57,"x_max":919,"o":"m 208 528 l 208 528 l 208 503 l 769 503 l 769 729 l 208 729 l 208 528 m 208 790 l 208 790 l 208 764 l 768 764 l 768 939 l 821 939 l 821 764 l 919 764 l 919 729 l 821 729 l 821 0 l 769 0 l 769 451 l 208 451 l 208 0 l 157 0 l 157 729 l 57 729 l 57 764 l 157 764 l 157 939 l 208 939 l 208 790 z "},"ħ":{"ha":832,"x_min":54,"x_max":719,"o":"m 667 0 l 667 401 l 667 401 q 649 499 669 450 q 593 581 629 547 q 521 626 563 611 q 440 639 483 639 q 361 622 404 638 q 281 579 318 607 q 225 521 249 554 q 192 447 201 488 l 192 444 l 192 0 l 139 0 q 140 237 140 119 q 140 472 140 354 l 140 843 l 54 843 l 54 876 l 140 876 l 140 993 l 192 993 l 192 876 l 344 876 l 344 843 l 192 843 l 192 560 q 241 613 213 589 q 303 653 269 636 q 374 681 338 671 q 446 690 411 690 q 540 674 494 693 q 624 622 585 657 q 694 524 669 583 q 718 403 719 465 l 718 0 l 667 0 z "},"Ĩ":{"ha":333,"x_min":-32,"x_max":368,"o":"m 143 0 l 143 939 l 194 939 l 194 0 l 143 0 m 368 1182 q 367 1172 368 1176 q 327 1103 360 1125 q 253 1088 294 1081 q 204 1103 229 1089 q 169 1123 186 1111 q 133 1146 151 1135 q 104 1163 118 1154 q 74 1176 90 1172 q 35 1174 54 1181 q 3 1147 17 1168 q -6 1128 -3 1136 q -11 1108 -8 1119 l -32 1108 q -29 1136 -32 1124 q -18 1161 -26 1149 q 56 1204 8 1204 q 89 1199 74 1204 q 124 1182 106 1193 q 163 1158 143 1171 q 203 1133 182 1144 q 242 1117 224 1122 q 310 1123 283 1104 q 347 1182 336 1142 l 368 1182 z "},"ĩ":{"ha":315,"x_min":-43,"x_max":357,"o":"m 183 678 l 183 0 l 183 0 l 132 0 l 132 257 q 131 295 132 276 q 131 333 131 314 q 131 418 131 378 q 135 500 131 458 q 149 585 139 542 q 179 678 160 628 l 183 678 m 357 921 q 341 867 357 894 q 290 828 325 839 q 253 824 278 825 q 194 840 228 824 q 167 856 181 847 q 140 874 153 865 q 104 895 125 882 q 67 913 83 908 q -7 885 19 925 q -17 867 -14 875 q -22 847 -19 858 l -43 847 q -42 856 -43 851 q -42 864 -42 860 q -29 900 -40 881 q 3 932 -14 921 q 44 942 22 942 q 78 938 61 942 q 111 921 94 932 l 146 900 q 188 874 167 888 q 232 854 208 861 q 291 856 265 844 q 329 900 317 868 q 336 921 335 914 l 357 921 z "},"ı":{"ha":324,"x_min":133,"x_max":188,"o":"m 188 675 l 188 0 l 133 0 l 133 254 l 133 331 l 133 396 q 142 529 133 464 q 183 675 151 594 l 188 675 z "},"Ĳ":{"ha":938,"x_min":96,"x_max":847,"o":"m 96 0 l 96 939 l 147 939 l 147 0 l 96 0 m 296 114 q 363 69 328 86 q 436 44 399 51 l 436 44 q 581 51 508 31 q 704 122 653 74 q 758 192 736 153 q 790 278 781 231 q 792 294 792 286 q 794 313 793 303 q 796 328 796 319 q 796 344 796 336 l 796 939 l 847 939 l 847 347 q 829 226 847 281 q 769 118 811 169 q 738 83 753 97 q 631 14 689 38 q 510 -12 572 -10 q 503 -13 507 -12 q 496 -14 499 -14 q 381 6 438 -14 q 276 64 325 25 q 267 71 271 67 q 258 79 263 75 l 296 114 z "},"ĳ":{"ha":613,"x_min":104,"x_max":513,"o":"m 182 678 l 182 0 l 131 0 l 131 256 q 131 295 131 276 q 129 333 131 314 q 129 418 129 378 q 134 500 129 458 q 149 585 139 542 q 179 678 160 628 l 182 678 m 157 939 q 194 924 179 939 q 210 886 210 908 q 194 849 210 864 q 157 833 179 833 q 119 849 135 833 q 104 886 104 864 q 119 924 104 908 q 157 939 135 939 m 460 939 q 497 924 482 939 q 513 886 513 908 q 497 849 513 864 q 460 833 482 833 q 422 849 438 833 q 411 865 415 856 q 407 886 407 875 q 411 907 407 897 q 422 924 415 917 q 460 939 438 939 m 486 -57 q 465 -163 486 -114 q 407 -249 443 -212 l 407 -249 q 333 -301 375 -281 q 242 -326 290 -322 l 242 -275 q 312 -254 279 -271 q 371 -212 344 -237 q 418 -142 401 -182 q 435 -58 435 -103 l 435 261 l 435 331 q 435 423 435 381 q 440 506 435 465 q 455 589 444 547 q 483 678 465 631 l 486 678 l 486 -57 z "},"Ĵ":{"ha":738,"x_min":49,"x_max":735,"o":"m 658 1201 l 735 1092 l 694 1092 l 614 1186 l 532 1092 l 492 1092 l 567 1201 l 658 1201 m 86 115 q 153 69 118 88 q 226 44 189 51 l 226 44 q 369 53 300 32 q 494 124 440 71 q 549 193 526 154 q 579 279 571 232 q 583 296 582 288 q 585 313 583 304 q 585 329 585 321 q 586 346 586 338 l 586 939 l 638 939 l 638 349 q 633 286 638 317 q 618 226 629 256 q 594 172 608 199 q 560 119 581 144 q 526 83 543 99 q 421 15 479 39 q 300 -12 363 -10 l 285 -12 q 170 7 226 -12 q 65 64 114 26 q 57 72 61 68 q 49 79 53 75 l 86 115 z "},"ĵ":{"ha":336,"x_min":-53,"x_max":290,"o":"m 192 -58 q 170 -163 192 -114 q 113 -249 149 -212 l 113 -250 q -53 -328 46 -317 l -53 -275 q 17 -254 -15 -271 q 75 -212 50 -237 q 123 -143 106 -183 q 140 -58 140 -103 l 140 261 l 140 331 q 140 423 140 381 q 144 506 140 465 q 159 588 149 546 q 189 678 169 631 l 192 678 l 192 -58 m 215 939 l 290 829 l 250 829 l 169 924 l 88 829 l 47 829 l 124 939 l 215 939 z "},"Ķ":{"ha":792,"x_min":117,"x_max":718,"o":"m 317 -260 l 281 -260 l 365 -150 l 433 -150 l 317 -260 m 597 939 l 668 939 l 236 475 q 477 238 358 356 q 718 0 596 119 l 644 0 l 168 469 l 168 0 l 117 0 l 117 939 l 168 939 l 168 490 l 168 478 l 597 939 z "},"ķ":{"ha":653,"x_min":124,"x_max":586,"o":"m 275 -261 l 238 -261 l 324 -151 l 392 -151 l 275 -261 m 489 676 l 560 676 l 243 356 l 586 0 l 514 0 l 175 351 l 175 0 l 124 0 l 124 992 l 175 992 l 175 365 l 175 358 l 489 676 z "},"ĸ":{"ha":664,"x_min":121,"x_max":583,"o":"m 172 340 q 269 444 218 389 q 366 549 321 500 q 444 634 411 599 q 486 678 478 669 l 556 678 l 240 338 l 583 0 l 510 0 l 172 333 l 172 281 l 172 0 l 121 0 l 121 678 l 172 678 l 172 346 l 172 340 z "},"Ŀ":{"ha":661,"x_min":90,"x_max":579,"o":"m 475 425 q 438 440 453 425 q 422 478 422 456 q 438 515 422 500 q 475 531 453 531 q 513 515 497 531 q 528 478 528 500 q 513 440 528 456 q 475 425 497 425 m 142 51 l 567 51 q 572 33 569 40 q 579 0 574 26 l 392 0 l 90 0 l 90 939 l 142 939 l 142 51 z "},"ŀ":{"ha":519,"x_min":94,"x_max":440,"o":"m 386 425 q 350 440 363 425 q 333 478 333 457 q 350 515 333 499 q 386 531 363 531 q 424 515 411 531 q 440 478 440 499 q 424 440 440 457 q 386 425 411 425 m 94 0 l 94 993 l 146 993 l 146 0 l 94 0 z "},"Ł":{"ha":725,"x_min":51,"x_max":665,"o":"m 226 51 l 651 51 l 651 51 l 665 0 l 478 0 l 175 0 l 175 447 l 51 414 l 51 451 l 175 485 l 175 939 l 226 939 l 226 499 l 492 569 l 492 532 l 226 461 l 226 51 z "},"ł":{"ha":419,"x_min":68,"x_max":336,"o":"m 224 540 l 336 571 l 336 533 l 224 503 l 224 0 l 172 0 l 172 489 l 68 461 l 68 499 l 172 526 l 172 993 l 224 993 l 224 575 l 224 540 z "},"Ń":{"ha":865,"x_min":100,"x_max":765,"o":"m 481 1094 l 443 1094 l 528 1204 l 596 1204 l 481 1094 m 100 0 l 100 940 l 161 940 l 715 78 l 715 940 l 765 940 l 765 0 l 704 0 l 150 863 l 150 0 l 100 0 z "},"ń":{"ha":765,"x_min":96,"x_max":668,"o":"m 486 942 q 429 886 458 914 q 371 831 400 858 l 333 831 l 418 942 l 486 942 m 617 392 q 610 463 617 433 q 595 515 604 493 q 577 550 586 536 q 561 571 568 564 q 493 621 533 604 q 467 631 489 624 q 410 638 444 638 q 335 629 376 639 q 249 588 293 619 q 187 524 213 560 q 149 449 161 488 l 147 446 l 149 0 l 96 0 l 96 678 l 106 678 l 157 567 l 182 593 q 288 664 225 638 q 407 690 347 690 q 525 663 472 690 q 574 631 553 650 q 614 588 596 611 q 636 548 626 568 q 653 504 646 528 q 663 455 660 481 q 668 401 667 429 l 668 0 l 617 0 l 617 392 z "},"Ň":{"ha":869,"x_min":101,"x_max":768,"o":"m 389 1093 l 313 1203 l 353 1203 l 433 1108 l 515 1203 l 556 1203 l 481 1093 l 389 1093 m 101 0 l 101 939 l 164 939 l 717 76 l 717 939 l 768 939 l 768 0 l 706 0 l 151 863 l 151 0 l 101 0 z "},"ň":{"ha":774,"x_min":99,"x_max":671,"o":"m 342 831 l 265 940 l 306 940 l 388 846 l 469 940 l 508 940 l 433 831 l 342 831 m 618 392 q 606 492 618 446 l 606 492 q 564 571 592 539 q 496 622 538 604 q 455 634 476 629 q 410 639 433 639 l 410 639 q 323 625 363 639 q 251 588 283 611 q 189 524 214 560 q 151 449 164 488 l 150 446 l 150 0 l 99 0 l 99 678 l 108 678 l 158 567 l 185 593 q 290 664 228 638 q 410 690 350 690 q 528 663 475 690 q 577 631 556 650 q 617 588 599 611 q 639 548 629 568 q 656 504 649 528 q 666 455 663 481 q 671 401 669 429 l 671 0 l 618 0 l 618 392 z "},"Œ":{"ha":1289,"x_min":57,"x_max":1231,"o":"m 669 61 l 669 858 l 669 858 l 669 878 l 651 883 q 497 897 575 904 q 349 856 418 889 q 224 768 279 824 q 139 636 169 713 q 108 469 108 558 q 139 303 108 381 q 224 171 169 226 q 348 83 279 115 q 495 42 417 50 q 651 56 574 35 l 669 61 m 721 888 l 721 528 l 721 503 l 1149 503 l 1149 451 l 721 451 l 722 51 l 1218 51 l 1231 0 l 642 0 l 639 0 q 538 -11 586 -11 q 397 10 465 -11 q 269 69 328 31 q 163 163 210 107 q 89 289 117 218 q 57 469 57 376 q 93 660 57 568 q 167 782 121 728 q 272 874 214 836 q 399 931 331 911 q 538 950 467 950 q 639 939 586 950 l 642 939 l 1231 939 l 1217 888 l 721 888 z "},"œ":{"ha":1406,"x_min":50,"x_max":1350,"o":"m 678 342 q 657 459 676 404 q 593 558 638 514 q 469 628 539 611 q 331 633 399 646 q 206 575 263 619 q 122 458 150 531 q 101 341 103 406 q 119 222 100 276 q 203 103 146 149 q 328 44 260 58 q 468 49 397 31 q 593 118 539 67 q 660 221 640 163 q 678 342 679 279 m 731 364 q 1000 364 865 364 q 1269 365 1135 364 l 1299 365 l 1294 394 q 1243 533 1283 472 q 1128 621 1203 593 q 1024 640 1078 640 q 922 623 971 640 q 832 572 872 606 q 767 489 792 538 q 744 428 750 456 q 731 364 738 400 m 1257 46 q 1165 7 1215 21 q 1036 -12 1096 -12 q 929 2 981 -12 q 835 44 878 17 q 760 112 793 72 q 706 201 726 151 q 634 86 682 133 q 519 13 586 39 q 453 -8 488 -1 q 386 -14 419 -14 q 260 9 321 -14 q 150 79 199 32 q 74 197 99 128 q 50 336 50 265 q 75 478 50 411 q 150 593 101 546 q 260 665 199 640 q 390 691 322 690 q 524 664 458 692 q 634 590 588 636 q 704 481 681 544 q 706 486 706 483 q 710 492 707 489 q 763 575 729 538 q 838 638 796 613 q 926 678 879 664 q 1024 692 974 692 q 1162 664 1101 692 q 1264 589 1222 636 q 1328 478 1306 542 q 1350 339 1350 414 l 1350 314 q 1040 313 1194 313 q 731 313 886 313 l 736 282 q 773 182 746 226 q 840 106 800 138 q 930 56 879 74 q 1036 39 981 39 q 1135 53 1085 39 q 1226 92 1185 68 l 1257 46 z "},"Ŕ":{"ha":804,"x_min":89,"x_max":731,"o":"m 393 939 q 523 917 463 939 q 628 853 583 894 q 701 753 674 811 q 728 624 728 694 l 728 624 q 705 502 728 560 q 641 401 682 444 q 544 333 600 358 q 421 306 488 307 l 731 0 l 657 0 l 349 304 l 140 304 l 142 0 l 89 0 l 89 939 l 393 939 m 140 888 l 140 356 l 400 356 q 508 376 457 356 q 596 431 558 396 q 654 516 633 467 q 675 624 675 565 q 653 732 675 683 q 593 815 631 781 q 505 869 556 850 q 396 888 454 888 l 140 888 m 379 1093 l 342 1093 l 428 1203 l 496 1203 l 379 1093 z "},"ŕ":{"ha":481,"x_min":101,"x_max":488,"o":"m 292 664 q 390 684 340 685 q 488 665 439 683 l 488 665 l 464 617 q 367 633 417 639 q 276 601 318 626 q 201 536 233 576 q 153 449 168 496 l 153 446 l 153 0 l 101 0 l 101 678 l 110 678 l 161 567 l 188 593 q 292 664 231 639 m 242 831 l 206 831 l 290 942 l 358 942 l 242 831 z "},"Ŗ":{"ha":806,"x_min":97,"x_max":738,"o":"m 400 939 q 530 917 469 939 q 635 853 590 894 q 708 753 681 811 q 735 624 735 694 q 712 502 735 560 q 648 401 689 444 q 551 331 607 357 q 428 304 494 306 l 738 0 l 664 0 l 356 304 l 149 304 l 149 0 l 97 0 l 97 939 l 400 939 m 149 888 l 149 381 l 149 356 l 407 356 q 515 375 464 356 q 603 430 565 394 q 662 515 640 465 q 683 624 683 564 q 661 732 683 683 q 601 815 639 781 q 512 869 563 850 q 404 888 461 888 l 149 888 m 431 -150 q 373 -206 401 -178 q 315 -261 344 -233 l 278 -261 l 363 -150 l 431 -150 z "},"ŗ":{"ha":488,"x_min":-14,"x_max":494,"o":"m 393 683 q 443 678 418 683 q 494 665 468 674 l 494 665 l 471 615 q 374 632 424 638 q 283 601 325 626 q 208 535 240 575 q 160 449 175 494 l 160 446 l 160 0 l 108 0 l 107 678 l 117 678 l 168 567 l 193 593 q 299 664 236 638 q 393 683 343 683 m 24 -261 l -14 -261 l 72 -150 l 140 -150 l 24 -261 z "},"Ř":{"ha":806,"x_min":94,"x_max":735,"o":"m 399 939 q 527 917 467 939 q 633 853 588 894 q 705 753 678 811 q 732 624 732 694 q 709 502 732 560 q 646 401 686 444 q 549 331 606 357 q 426 304 493 306 l 735 0 l 661 0 l 353 304 l 146 304 l 146 0 l 94 0 l 94 939 l 399 939 m 146 888 l 146 381 l 146 356 l 404 356 q 513 375 463 356 q 601 430 564 394 q 660 515 639 465 q 681 624 681 564 q 658 732 681 683 q 598 815 636 781 q 509 869 560 850 q 401 888 458 888 l 146 888 m 332 1092 l 256 1201 l 296 1201 l 376 1107 l 460 1201 l 499 1201 l 424 1092 l 332 1092 z "},"ř":{"ha":469,"x_min":97,"x_max":485,"o":"m 289 664 q 386 684 338 685 q 485 665 435 683 l 483 665 l 460 615 q 364 632 413 638 q 272 601 315 626 q 197 536 229 576 q 150 449 165 496 l 149 446 l 149 0 l 97 0 l 97 678 l 107 678 l 157 567 l 183 593 q 289 664 226 636 m 199 831 l 122 939 l 163 939 l 243 846 l 326 939 l 365 939 l 290 831 l 199 831 z "},"Ś":{"ha":794,"x_min":63,"x_max":708,"o":"m 525 1203 q 467 1148 496 1175 q 408 1093 438 1121 l 371 1093 l 457 1203 l 525 1203 m 635 793 q 615 814 632 797 q 568 849 599 831 q 494 883 538 868 q 396 900 451 899 q 311 893 356 901 q 228 865 267 885 q 170 824 196 849 q 133 764 144 799 q 142 650 114 700 q 181 603 157 624 q 236 567 206 582 q 317 533 276 547 q 401 506 358 518 q 466 484 433 494 q 531 461 499 474 q 621 407 581 439 q 685 332 661 375 q 708 240 708 289 q 694 164 708 201 q 676 123 688 142 q 649 88 664 104 q 571 28 619 54 q 479 -6 528 6 q 381 -17 431 -17 q 182 28 274 -17 q 107 76 139 50 q 63 119 83 94 l 103 150 q 168 95 132 118 q 244 58 204 72 q 335 38 289 43 q 426 38 382 32 q 582 96 519 49 q 621 134 604 113 q 646 181 638 156 q 656 255 660 221 q 635 317 651 289 q 582 373 615 349 q 511 413 549 397 q 451 435 482 425 q 388 456 419 444 q 300 485 344 469 q 216 520 256 500 q 144 567 176 540 q 93 632 113 594 q 74 701 75 664 q 75 740 72 721 q 85 779 78 758 q 127 852 99 821 q 192 904 156 883 q 291 942 238 931 q 397 951 344 953 q 564 910 488 947 q 676 824 629 878 l 635 793 z "},"ś":{"ha":685,"x_min":79,"x_max":601,"o":"m 353 831 l 317 831 l 401 940 l 469 940 l 353 831 m 529 568 q 443 619 493 601 l 443 619 q 367 637 407 633 q 292 635 328 640 q 224 618 256 631 q 171 588 192 606 q 140 544 147 567 q 154 460 122 496 q 183 434 167 444 q 219 414 200 424 q 283 390 250 400 q 350 371 317 381 q 475 330 415 353 q 571 258 535 307 q 600 194 594 229 q 601 175 601 189 q 589 115 601 149 q 542 49 575 79 q 382 -14 479 -3 q 358 -17 369 -17 q 333 -17 346 -17 q 188 10 257 -17 q 79 76 128 33 l 119 111 q 161 79 139 92 q 208 57 183 67 q 290 37 249 42 q 372 36 332 32 q 448 53 413 40 q 507 88 483 67 q 542 136 531 107 q 548 192 554 168 q 525 235 542 217 q 483 269 508 254 q 429 293 457 283 q 386 308 407 301 q 349 318 365 314 q 340 321 342 321 q 336 321 339 321 l 331 322 q 265 342 300 331 q 199 367 231 353 q 142 401 168 382 q 99 449 115 421 q 88 474 92 461 q 82 503 83 488 q 92 563 79 532 q 126 617 103 594 q 179 654 149 639 q 261 682 217 674 q 347 689 306 690 q 482 660 419 686 q 568 601 532 636 l 529 568 z "},"Š":{"ha":817,"x_min":85,"x_max":732,"o":"m 365 1092 l 290 1201 l 331 1201 l 411 1108 l 493 1201 l 533 1201 l 457 1092 l 365 1092 m 658 793 q 563 865 614 839 l 563 865 q 494 890 531 881 q 418 900 457 899 q 335 893 379 901 q 251 865 290 885 q 193 824 218 849 q 157 764 168 800 q 149 703 146 732 q 164 651 151 675 q 204 603 179 624 q 260 567 229 582 q 341 533 300 547 q 425 506 382 519 q 490 484 457 494 q 554 461 522 474 q 644 408 603 440 q 708 332 685 375 q 726 290 719 313 q 732 240 732 267 q 718 164 732 204 q 672 88 701 121 q 594 29 639 53 q 503 -5 551 6 q 404 -15 454 -15 q 206 29 297 -15 q 166 51 185 39 q 129 76 147 63 q 107 98 118 88 q 85 119 96 108 l 126 151 q 192 95 156 118 q 268 58 228 72 q 359 38 313 43 q 450 38 406 33 q 606 96 540 49 q 669 182 651 133 q 679 256 683 222 q 658 317 675 289 q 606 373 639 349 q 533 414 572 397 q 474 435 506 425 q 411 456 443 446 q 323 485 368 469 q 238 520 278 500 q 167 567 199 540 q 115 632 135 594 q 96 703 100 665 q 107 779 94 736 q 149 853 121 822 q 215 904 178 883 q 315 942 261 931 q 419 951 368 953 q 588 910 511 949 q 699 824 650 878 l 658 793 z "},"š":{"ha":688,"x_min":85,"x_max":607,"o":"m 294 831 l 219 940 l 258 940 l 340 846 l 422 940 l 463 940 l 386 831 l 294 831 m 535 568 q 473 610 506 596 q 408 632 440 625 q 347 639 376 639 q 297 636 318 639 q 229 619 261 631 q 176 588 197 607 q 146 546 154 567 q 140 499 136 519 q 160 460 144 478 q 189 434 172 444 q 225 415 206 424 q 288 392 256 401 q 356 372 321 382 q 419 353 388 363 q 479 331 450 343 q 533 301 508 318 q 576 260 558 283 q 606 194 599 231 q 607 176 607 189 q 594 117 607 149 q 547 50 581 79 q 476 8 517 24 q 388 -14 435 -8 q 363 -16 375 -15 q 339 -17 351 -17 q 193 10 263 -17 q 85 78 132 33 l 125 111 q 214 57 161 76 q 296 38 254 42 q 378 38 338 33 q 453 55 418 42 q 513 89 489 68 q 547 138 538 110 q 553 192 560 168 q 531 235 547 217 q 488 269 514 254 q 435 293 463 283 q 339 323 385 313 q 240 353 293 333 q 162 391 199 368 q 104 450 125 414 q 88 504 90 475 q 97 563 85 533 q 131 617 108 594 q 183 656 154 640 q 267 683 222 675 q 353 690 311 692 q 488 660 426 688 q 574 601 536 639 l 535 568 z "},"Ť":{"ha":772,"x_min":65,"x_max":703,"o":"m 338 1093 l 263 1203 l 301 1203 l 383 1108 l 465 1203 l 506 1203 l 429 1093 l 338 1093 m 410 0 l 358 0 l 358 888 l 65 888 l 65 939 l 703 940 l 703 888 l 410 888 l 410 0 z "},"ť":{"ha":531,"x_min":74,"x_max":471,"o":"m 447 1097 q 409 960 428 1028 q 371 821 390 892 l 368 821 l 389 1097 l 447 1097 m 210 154 l 210 600 l 210 600 l 210 625 l 74 625 l 74 676 l 210 678 l 210 856 l 261 856 l 261 678 l 436 678 l 436 626 l 261 625 l 261 154 q 278 88 263 114 q 319 50 293 63 q 378 38 344 38 q 447 46 411 38 l 471 -4 q 435 -10 453 -7 q 397 -14 417 -12 l 375 -14 q 337 -11 356 -14 q 303 -1 318 -8 q 236 60 261 19 q 217 105 224 81 q 210 154 211 129 z "},"Ů":{"ha":860,"x_min":96,"x_max":764,"o":"m 713 332 l 713 939 l 713 939 l 764 939 l 764 331 q 739 192 764 257 q 658 76 711 126 q 608 38 635 56 q 553 10 582 21 q 431 -14 494 -14 q 360 -6 394 -14 q 294 15 325 1 q 181 97 231 43 q 117 206 136 149 q 96 332 96 264 l 96 939 l 147 939 l 149 331 q 152 276 149 303 q 165 224 156 249 q 221 131 182 174 q 317 63 261 86 q 371 44 343 51 q 431 38 399 38 q 536 60 485 38 q 628 119 589 81 q 667 166 651 142 q 693 217 682 190 q 708 272 704 244 q 713 332 713 300 m 478 1204 q 424 1224 458 1226 l 424 1224 q 379 1203 396 1221 q 361 1156 361 1182 q 381 1108 361 1125 q 403 1093 389 1100 l 403 1093 q 416 1089 410 1090 q 429 1088 422 1088 q 478 1108 457 1088 l 478 1108 q 497 1161 501 1132 q 492 1185 497 1171 q 478 1204 488 1194 m 499 1086 q 468 1066 486 1074 q 431 1058 450 1058 q 363 1085 389 1058 q 340 1118 349 1099 q 332 1157 332 1138 q 361 1225 332 1194 q 394 1247 376 1240 q 429 1253 411 1253 q 467 1246 449 1253 q 500 1224 486 1238 q 520 1194 513 1211 q 528 1156 528 1176 q 499 1086 528 1115 z "},"ů":{"ha":764,"x_min":96,"x_max":668,"o":"m 147 678 l 147 286 l 147 286 q 160 197 147 242 q 203 115 174 151 q 272 59 232 78 q 353 39 311 40 q 438 51 396 38 q 517 92 481 65 q 617 232 590 147 l 617 678 l 668 678 l 668 0 l 657 0 l 607 111 q 551 55 579 79 q 481 11 522 31 q 365 -12 426 -12 q 259 9 307 -12 q 176 68 211 31 q 118 161 139 108 q 96 275 97 214 l 96 678 l 147 678 m 429 969 q 376 989 410 992 q 331 968 350 988 q 313 921 313 947 q 332 874 313 893 q 354 858 340 865 l 354 858 q 368 854 361 856 q 382 853 375 853 q 429 874 408 853 l 429 874 q 447 899 442 885 q 450 926 451 913 q 447 939 449 933 q 443 950 446 944 q 429 969 438 963 m 451 851 q 382 824 424 824 q 314 850 340 824 q 292 883 300 864 q 285 922 285 904 q 313 990 285 961 q 345 1012 328 1006 q 381 1018 363 1018 q 419 1011 399 1018 q 451 989 439 1001 q 472 959 464 976 q 479 921 479 942 q 472 883 479 900 q 451 851 464 865 z "},"Ÿ":{"ha":779,"x_min":39,"x_max":736,"o":"m 468 1154 q 485 1192 468 1175 q 522 1207 500 1207 q 560 1192 544 1207 q 571 1175 567 1185 q 575 1154 575 1165 q 571 1133 575 1143 q 560 1117 567 1124 q 522 1101 544 1101 q 485 1117 500 1101 q 468 1154 468 1133 m 200 1154 q 215 1192 200 1176 q 253 1207 231 1207 q 290 1192 275 1207 q 306 1154 306 1176 q 290 1117 306 1132 q 253 1101 275 1101 q 215 1117 231 1101 q 200 1154 200 1132 m 365 482 q 376 463 371 472 q 388 443 381 454 l 676 939 l 736 939 l 413 385 l 413 0 l 363 0 l 363 385 l 39 939 l 99 939 l 365 482 z "},"Ź":{"ha":865,"x_min":71,"x_max":785,"o":"m 479 1093 l 442 1093 l 528 1204 l 596 1204 l 479 1093 m 71 49 q 394 469 233 260 q 719 889 556 678 l 129 889 l 129 939 l 783 939 l 785 890 l 133 53 l 782 53 l 782 0 l 71 0 l 71 49 z "},"ź":{"ha":681,"x_min":76,"x_max":599,"o":"m 485 942 q 426 887 456 914 q 368 832 397 860 l 331 832 l 417 942 l 485 942 m 497 585 l 531 626 l 114 626 l 114 678 l 596 678 l 596 635 l 143 51 l 599 51 l 599 0 l 76 0 l 76 43 l 497 585 z "},"Ż":{"ha":871,"x_min":76,"x_max":790,"o":"m 422 1156 q 438 1193 422 1181 q 475 1210 454 1210 q 513 1193 496 1210 q 528 1156 528 1181 q 513 1118 528 1133 q 496 1107 506 1111 q 475 1103 486 1103 q 454 1107 464 1103 q 438 1118 444 1111 q 422 1156 422 1133 m 76 50 q 401 469 240 261 q 726 889 563 678 l 135 889 l 136 939 l 790 939 l 790 890 l 140 53 l 789 53 l 789 0 l 76 0 l 76 50 z "},"ż":{"ha":688,"x_min":76,"x_max":600,"o":"m 361 939 q 399 924 383 939 q 414 886 414 908 q 399 849 414 864 q 361 833 383 833 q 324 849 339 833 q 308 886 308 864 q 324 924 308 908 q 361 939 339 939 m 499 585 q 514 606 506 596 q 531 626 522 615 l 114 626 l 114 678 l 597 678 l 597 635 l 143 51 l 600 51 l 600 0 l 76 0 l 76 43 l 499 585 z "},"Ž":{"ha":883,"x_min":79,"x_max":794,"o":"m 440 1093 l 364 1203 l 404 1203 l 486 1108 l 568 1203 l 607 1203 l 532 1093 l 440 1093 m 729 889 l 139 889 l 139 939 l 793 939 l 794 890 l 143 53 l 792 53 l 792 0 l 79 0 l 81 49 l 729 889 z "},"ž":{"ha":697,"x_min":85,"x_max":607,"o":"m 335 831 l 260 940 l 300 940 l 381 846 l 463 940 l 503 940 l 426 831 l 335 831 m 507 585 q 522 606 514 596 q 539 626 531 615 l 122 626 l 122 678 l 606 678 l 606 635 l 151 51 l 607 51 l 607 0 l 85 0 l 85 43 l 507 585 z "},"Ϯ":{"ha":778,"x_min":0,"x_max":0,"o":""},"ẞ":{"ha":789,"x_min":94,"x_max":721,"o":"m 94 0 l 94 740 l 94 740 q 118 840 94 800 q 181 905 142 881 q 269 940 219 929 q 369 950 318 950 l 382 950 q 517 917 461 949 q 594 838 572 885 q 601 736 617 790 q 519 633 585 682 q 459 578 476 601 q 446 531 442 556 q 478 487 451 507 q 540 444 504 467 q 615 391 576 421 q 682 319 653 361 q 711 259 701 292 q 721 194 721 226 q 702 108 721 150 q 644 39 683 67 q 567 0 608 13 q 483 -12 526 -12 q 397 0 439 -12 l 397 53 q 487 39 442 39 q 574 57 532 39 q 635 100 611 74 q 667 158 658 126 q 667 226 675 190 q 633 297 658 263 q 592 342 615 322 q 542 381 568 363 q 491 415 517 399 q 444 449 465 432 q 394 521 404 481 q 414 604 385 561 q 451 644 431 628 q 490 675 471 660 q 526 708 510 690 q 551 750 543 725 q 549 812 563 783 q 508 860 536 840 q 453 887 485 878 q 387 898 421 896 q 319 897 353 900 q 257 885 285 893 q 178 837 210 869 q 146 744 146 804 l 146 0 l 94 0 z "},"–":{"ha":457,"x_min":100,"x_max":349,"o":"m 349 451 l 100 451 l 100 503 l 349 503 l 349 451 z "},"—":{"ha":854,"x_min":99,"x_max":761,"o":"m 761 451 l 99 451 l 99 503 l 761 503 l 761 451 z "},"‘":{"ha":244,"x_min":76,"x_max":158,"o":"m 76 822 q 115 960 96 892 q 154 1099 135 1028 l 158 1099 l 138 822 l 76 822 z "},"’":{"ha":235,"x_min":79,"x_max":160,"o":"m 83 822 l 79 822 l 100 1099 l 160 1099 l 83 822 z "},"‚":{"ha":242,"x_min":76,"x_max":158,"o":"m 81 -194 l 76 -194 l 97 82 l 158 82 l 81 -194 z "},"“":{"ha":390,"x_min":88,"x_max":286,"o":"m 88 821 q 126 959 107 890 q 165 1097 146 1028 l 169 1097 l 147 821 l 88 821 m 204 821 q 243 959 224 890 q 282 1097 263 1028 l 286 1097 l 265 821 l 204 821 z "},"”":{"ha":382,"x_min":93,"x_max":292,"o":"m 214 821 l 210 821 l 232 1097 l 292 1097 l 214 821 m 97 821 l 93 821 l 114 1097 l 175 1097 l 97 821 z "},"„":{"ha":383,"x_min":89,"x_max":289,"o":"m 211 -194 l 207 -194 l 228 82 l 289 82 l 211 -194 m 93 -194 l 89 -194 l 111 82 l 171 82 l 93 -194 z "},"•":{"ha":369,"x_min":94,"x_max":268,"o":"m 181 390 q 119 415 147 390 q 94 476 94 443 q 119 538 94 513 q 181 564 146 564 q 242 538 218 564 q 268 476 268 514 q 242 415 268 442 q 181 390 217 390 z "},"‹":{"ha":410,"x_min":100,"x_max":307,"o":"m 164 490 q 159 483 161 488 q 154 476 157 479 l 307 258 l 269 258 l 100 476 l 269 693 l 307 693 l 164 490 z "},"›":{"ha":428,"x_min":107,"x_max":314,"o":"m 144 693 l 314 476 l 144 258 l 107 258 l 261 476 l 107 693 l 144 693 z "},"⁄":{"ha":751,"x_min":38,"x_max":714,"o":"m 261 329 q 468 634 365 482 q 675 939 571 786 l 675 939 l 714 939 q 394 469 554 701 q 75 0 235 236 l 38 0 l 261 329 z "},"⁴":{"ha":476,"x_min":82,"x_max":383,"o":"m 328 675 l 328 565 l 383 565 l 383 526 l 328 526 l 328 424 l 292 424 l 292 526 l 82 526 l 82 586 l 221 939 l 265 939 l 118 565 l 292 565 l 292 628 q 299 652 292 639 q 313 675 306 665 l 328 675 z "},"€":{"ha":1026,"x_min":60,"x_max":954,"o":"m 613 -12 l 603 -12 l 603 -12 q 429 23 514 -11 q 274 128 344 57 q 203 219 231 169 q 173 283 183 254 q 153 349 163 313 l 60 349 l 60 390 l 146 390 q 142 435 143 418 q 140 469 140 453 q 142 503 140 485 q 146 547 143 521 l 60 547 l 60 588 l 154 588 l 160 607 q 257 790 188 713 q 428 911 326 868 q 524 940 475 931 q 622 950 574 950 q 799 917 714 950 q 954 818 885 885 l 917 782 q 774 872 854 842 q 608 899 694 901 q 506 883 557 897 q 408 844 454 869 q 324 784 363 819 q 257 703 285 749 q 228 646 238 671 q 207 588 218 621 l 546 588 l 546 547 l 199 547 q 194 504 196 522 q 193 469 193 486 q 194 434 193 453 q 199 390 196 415 l 546 390 l 546 349 l 206 349 l 218 315 q 311 164 249 226 q 452 70 375 100 q 610 40 529 40 q 772 65 692 39 q 921 142 851 92 l 951 101 q 788 17 875 46 q 613 -12 701 -12 z "}}}
